<?xml version="1.0" encoding="UTF-8"?><svg id="Warstwa_4" xmlns="http://www.w3.org/2000/svg" viewBox="0 0 44 44"><polygon points="2 2 28 2 28 28 30 28 30 1 29 0 1 0 0 1 0 43 1 44 9 44 9 42 2 42 2 2"/><rect x="13" y="6" width="13" height="2"/><rect x="13" y="11" width="13" height="2"/><path d="m4,7v5l1,1h5l1-1v-5l-1-1h-5l-1,1Zm2,1h3v3h-3v-3Z"/><rect x="13" y="19" width="13" height="2"/><rect x="13" y="24" width="13" height="2"/><path d="m11,20l-1-1h-5l-1,1v5l1,1h5l1-1v-5Zm-2,4h-3v-3h3v3Z"/><path d="m43,30h-4l-1,1v.51l-4.38-1.46-.32-.05h-11.92c-1.35,0-2.55.84-2.93,2.05-.3.95-.15,1.94.43,2.73.56.77,1.47,1.23,2.42,1.23h1.39l-1.67,1h-7.64c-1.35,0-2.55.84-2.93,2.05-.3.95-.15,1.94.43,2.73.56.77,1.47,1.23,2.42,1.23h8l8.06-1h8.64v1l1,1h4l1-1v-12l-1-1Zm-13.7,10l-8.06,1h-7.94c-.32,0-.62-.15-.81-.41-.11-.15-.28-.48-.14-.94.12-.38.55-.65,1.03-.65h7.92l.51-.14,4.76-2.86h2.42v-2h-7.7c-.32,0-.62-.15-.81-.41-.11-.15-.28-.48-.14-.94.12-.38.55-.65,1.03-.65h11.75l4.86,1.62v6.38h-8.7Zm12.7,2h-2v-10h2v10Z"/></svg>