<?xml version="1.0" encoding="UTF-8"?><svg id="pictogram" xmlns="http://www.w3.org/2000/svg" viewBox="0 0 154 48"><path d="m77.84,3.46c1.06,0,1.99.28,2.77.83.78.55,1.38,1.35,1.8,2.39.52-1.04,1.27-1.84,2.25-2.39s2.12-.83,3.41-.83c1.81,0,3.24.6,4.27,1.8,1.03,1.2,1.55,2.86,1.55,4.99v9.45h-4.41v-9.17c0-2.17-.91-3.25-2.72-3.25-.98,0-1.74.33-2.28.99-.54.66-.81,1.6-.81,2.83v8.61h-4.41v-9.17c0-2.17-.91-3.25-2.72-3.25-.98,0-1.74.34-2.29,1.03-.54.69-.81,1.68-.81,2.97v8.42h-4.41V3.9h4.04v2.16c.48-.83,1.13-1.48,1.96-1.92.82-.45,1.77-.67,2.83-.67Z"/><path d="m110.07,19.7c-.77,0-1.37-.15-1.8-.44-.43-.29-.7-.76-.83-1.41-.5.75-1.19,1.33-2.08,1.72-.89.4-1.89.59-3.02.59-1.69,0-3.03-.44-4.01-1.33-.98-.89-1.47-2.09-1.47-3.62,0-1.71.63-3.04,1.88-3.99,1.25-.95,3.03-1.42,5.32-1.42h2.54c-.06-1.02-.37-1.76-.92-2.22-.55-.46-1.4-.69-2.55-.69-1.44,0-2.83.41-4.16,1.22l-1.25-2.91c.73-.54,1.62-.97,2.68-1.28,1.05-.31,2.16-.47,3.33-.47,2.3,0,4.08.59,5.35,1.77,1.27,1.18,1.91,2.82,1.91,4.93v5.95h1.91v3.6h-2.82Zm-9.01-4.98c0,.67.21,1.18.64,1.55.43.37,1.03.55,1.8.55.94,0,1.69-.29,2.27-.88.57-.58.86-1.37.86-2.35v-.94h-2.22c-1.17,0-2.02.17-2.55.5-.53.33-.8.86-.8,1.57Z"/><path d="m115.52,26.03V3.9h4.29v2.13c.58-.81,1.32-1.45,2.21-1.89.89-.45,1.87-.67,2.96-.67,1.44,0,2.71.37,3.82,1.1,1.11.73,1.96,1.73,2.55,2.99.59,1.26.89,2.69.89,4.27,0,1.67-.32,3.14-.96,4.41-.64,1.27-1.5,2.25-2.6,2.93s-2.33,1.02-3.71,1.02c-1.08,0-2.06-.21-2.93-.64-.87-.43-1.57-1.06-2.11-1.89v8.39h-4.41Zm8.26-9.7c1.17,0,2.12-.42,2.85-1.25.73-.83,1.1-1.92,1.1-3.25s-.37-2.42-1.1-3.25-1.68-1.25-2.85-1.25-2.19.42-2.94,1.25-1.13,1.92-1.13,3.25.38,2.42,1.13,3.25c.75.83,1.73,1.25,2.94,1.25Z"/><path d="m135.33,26.03V3.9h4.29v2.13c.58-.81,1.32-1.45,2.21-1.89.89-.45,1.87-.67,2.96-.67,1.44,0,2.71.37,3.82,1.1,1.11.73,1.96,1.73,2.55,2.99.59,1.26.89,2.69.89,4.27,0,1.67-.32,3.14-.95,4.41-.64,1.27-1.5,2.25-2.6,2.93-1.09.68-2.33,1.02-3.71,1.02-1.08,0-2.06-.21-2.93-.64-.87-.43-1.57-1.06-2.11-1.89v8.39h-4.41Zm8.26-9.7c1.17,0,2.12-.42,2.85-1.25.73-.83,1.1-1.92,1.1-3.25s-.37-2.42-1.1-3.25-1.68-1.25-2.85-1.25-2.19.42-2.94,1.25c-.75.83-1.13,1.92-1.13,3.25s.38,2.42,1.13,3.25c.75.83,1.73,1.25,2.94,1.25Z"/><path d="m73.55,43.12c.99,0,1.75-.29,2.28-.86.53-.57.8-1.39.8-2.45v-6.46h.94v6.47c0,1.32-.35,2.35-1.05,3.08-.7.73-1.69,1.1-2.96,1.1s-2.25-.37-2.96-1.1c-.7-.73-1.05-1.76-1.05-3.08v-6.47h.94v6.46c0,1.06.27,1.88.8,2.45.53.57,1.29.86,2.28.86Z"/><path d="m83.21,44.01c-.62,0-1.21-.07-1.76-.22s-1.02-.36-1.42-.64l.33-.7c.36.24.8.42,1.3.55.5.13,1.03.2,1.57.2.57,0,1.03-.13,1.37-.4.34-.27.51-.62.51-1.07,0-.36-.14-.66-.41-.9-.28-.23-.71-.41-1.3-.52l-1-.2c-.76-.15-1.32-.39-1.68-.74-.36-.35-.54-.81-.54-1.4,0-.67.25-1.2.76-1.59.5-.39,1.18-.59,2.04-.59.55,0,1.07.07,1.54.2s.89.33,1.25.59l-.36.7c-.3-.21-.67-.38-1.11-.5-.44-.12-.88-.19-1.34-.19-.56,0-1.01.12-1.36.37-.34.25-.52.57-.52.97,0,.69.46,1.12,1.37,1.29l1.08.22c.87.18,1.51.44,1.9.8.4.36.59.84.59,1.46,0,.7-.25,1.25-.76,1.67-.5.42-1.19.62-2.07.62Z"/><path d="m94.72,43.15c-.33.27-.75.48-1.25.63s-1.05.23-1.64.23c-1.22,0-2.18-.37-2.89-1.11-.71-.74-1.07-1.74-1.07-3.01,0-.8.16-1.52.49-2.14s.77-1.11,1.33-1.45c.56-.34,1.19-.51,1.87-.51.99,0,1.78.34,2.37,1.03.59.69.89,1.61.89,2.78v.5h-6.07c.03.98.32,1.74.86,2.29.54.55,1.28.82,2.21.82.51,0,.99-.06,1.44-.2.45-.13.82-.31,1.12-.55l.33.7Zm-3.18-6.55c-.75,0-1.38.25-1.88.75-.5.5-.8,1.16-.88,2h5.18c-.03-.85-.26-1.52-.69-2.01-.43-.49-1.01-.73-1.72-.73Z"/><path d="m101.07,36.8c-.09-.03-.31-.05-.66-.05-.8,0-1.44.25-1.9.76-.47.5-.7,1.19-.7,2.05v4.24h-.89v-7.82h.87v1.54c.25-.53.6-.93,1.06-1.21.46-.28.99-.41,1.61-.41.18,0,.38.02.61.06v.83Z"/><path d="m109.43,43.8l-3.26-4.73-3.2,4.73h-1.08l3.74-5.43-3.49-5.02h1.09l3.03,4.38,2.95-4.38h1.08l-3.49,5.07,3.73,5.38h-1.09Z"/><path d="m17.58,35v-4.15h4.15l1-1v-4.15h2.43l.71-.29,2.24-2.24c3.52.74,7.21-.35,9.77-2.91,4.17-4.17,4.17-10.96,0-15.14-4.17-4.17-10.96-4.17-15.14,0-2.19,2.19-3.31,5.18-3.11,8.26l-12.32,12.32-.29.71v8.58l1,1h8.58l1-1Zm-2-1h-6.58v-7.16l12.36-12.36.29-.82c-.29-2.64.62-5.23,2.5-7.11,3.39-3.39,8.91-3.39,12.31,0,3.39,3.39,3.39,8.91,0,12.31-2.19,2.19-5.41,3.05-8.41,2.25l-1.03.32-2.28,2.28h-3.02l-1,1v4.15h-4.15l-1,1v4.15Z"/><path d="m29.07,15.85c.52.25,1.08.37,1.64.37.44,0,.89-.08,1.32-.23h0c.97-.35,1.75-1.06,2.19-2,.44-.94.49-1.99.14-2.96-.72-2.01-2.95-3.05-4.95-2.33-2.01.72-3.05,2.95-2.32,4.95.35.97,1.06,1.75,1.99,2.19Zm1.01-5.26c.21-.07.42-.11.64-.11.27,0,.54.06.79.18.45.21.79.59.96,1.06.17.47.15.98-.07,1.43-.21.45-.59.79-1.06.96-.47.17-.98.15-1.43-.07-.45-.21-.79-.59-.96-1.06-.35-.97.15-2.04,1.12-2.39Z"/><path d="m47,31.92h-4l-1,1v.51l-4.38-1.46-.32-.05h-11.92c-1.35,0-2.55.84-2.93,2.05-.3.95-.15,1.94.43,2.72.56.77,1.47,1.23,2.42,1.23h1.39l-1.67,1h-7.64c-1.35,0-2.55.84-2.93,2.05-.3.95-.15,1.94.43,2.72.56.77,1.47,1.23,2.42,1.23h8l8.06-1h8.64v1l1,1h4l1-1v-12l-1-1Zm-13.7,10l-8.06,1h-7.94c-.32,0-.62-.15-.81-.41-.11-.15-.28-.48-.14-.94.12-.38.55-.65,1.03-.65h7.92l.51-.14,4.76-2.86h2.42v-2h-7.7c-.32,0-.62-.15-.81-.41-.11-.15-.28-.48-.14-.94.12-.38.55-.65,1.03-.65h11.75l4.86,1.62v6.38h-8.7Zm12.7,2h-2v-10h2v10Z"/></svg>