<?xml version="1.0" encoding="UTF-8"?><svg id="Warstwa_4" xmlns="http://www.w3.org/2000/svg" viewBox="0 0 44 44"><polygon points="23 11 35 11 35 28 37 28 37 10 36 9 22 9 21 10 21 28 23 28 23 11"/><polygon points="2 29 7 29 8 28 8 2 15 2 15 35 17 35 17 1 16 0 7 0 6 1 6 27 1 27 0 28 0 43 1 44 9 44 9 42 2 42 2 29"/><rect x="10" y="4" width="3" height="2"/><rect x="10" y="8" width="3" height="2"/><rect x="10" y="12" width="3" height="2"/><rect x="10" y="16" width="3" height="2"/><rect x="25" y="13" width="3" height="2"/><rect x="25" y="17" width="3" height="2"/><rect x="25" y="21" width="3" height="2"/><rect x="25" y="25" width="3" height="2"/><rect x="30" y="13" width="3" height="2"/><rect x="30" y="17" width="3" height="2"/><rect x="30" y="21" width="3" height="2"/><rect x="30" y="25" width="3" height="2"/><path d="m43,30h-4l-1,1v.51l-4.38-1.46-.32-.05h-11.92c-1.35,0-2.55.84-2.93,2.05-.38,1.21-.02,2.49,1,3.32.55.45,1.27.64,1.98.64h1.27s-1.67,1-1.67,1h-7.64c-1.35,0-2.55.84-2.93,2.05-.38,1.21-.02,2.49,1,3.32.55.45,1.27.64,1.98.64h7.88s8.06-1,8.06-1h8.64v1l1,1h4l1-1v-12l-1-1Zm-13.7,10l-8.06,1h-7.94c-.32,0-.62-.15-.81-.41-.11-.15-.28-.48-.14-.94.12-.38.55-.65,1.03-.65h7.92l.51-.14,4.76-2.86h2.42v-2h-7.7c-.32,0-.62-.15-.81-.41-.11-.15-.28-.48-.14-.94.12-.38.55-.65,1.03-.65h11.75l4.86,1.62v6.38h-8.7Zm12.7,2h-2v-10h2v10Z"/></svg>