<?xml version="1.0" encoding="UTF-8"?><svg id="pictogram" xmlns="http://www.w3.org/2000/svg" viewBox="0 0 155 48"><g><polygon points="4 4 30 4 30 30 32 30 32 3 31 2 3 2 2 3 2 45 3 46 11 46 11 44 4 44 4 4"/><rect x="15" y="8" width="13" height="2"/><rect x="15" y="13" width="13" height="2"/><path d="m6,9v5l1,1h5l1-1v-5l-1-1h-5l-1,1Zm2,1h3v3h-3v-3Z"/><rect x="15" y="21" width="13" height="2"/><rect x="15" y="26" width="13" height="2"/><path d="m13,22l-1-1h-5l-1,1v5l1,1h5l1-1v-5Zm-2,4h-3v-3h3v3Z"/><path d="m45,32h-4l-1,1v.51l-4.38-1.46-.32-.05h-11.92c-1.35,0-2.55.84-2.93,2.05-.3.95-.15,1.94.43,2.73.56.77,1.47,1.23,2.42,1.23h1.39l-1.67,1h-7.64c-1.35,0-2.55.84-2.93,2.05-.3.95-.15,1.94.43,2.73.56.77,1.47,1.23,2.42,1.23h8l8.06-1h8.64v1l1,1h4l1-1v-12l-1-1Zm-13.7,10l-8.06,1h-7.94c-.32,0-.62-.15-.81-.41-.11-.15-.28-.48-.14-.94.12-.38.55-.65,1.03-.65h7.92l.51-.14,4.76-2.86h2.42v-2h-7.7c-.32,0-.62-.15-.81-.41-.11-.15-.28-.48-.14-.94.12-.38.55-.65,1.03-.65h11.75l4.86,1.62v6.38h-8.7Zm12.7,2h-2v-10h2v10Z"/></g><g><path d="m76.8,3.56c1.06,0,1.98.28,2.76.83.78.55,1.38,1.35,1.8,2.39.52-1.04,1.27-1.84,2.25-2.39.98-.55,2.11-.83,3.4-.83,1.81,0,3.23.6,4.26,1.8,1.03,1.2,1.55,2.86,1.55,4.98v9.43h-4.4v-9.15c0-2.16-.91-3.25-2.72-3.25-.98,0-1.74.33-2.28.98-.54.66-.81,1.6-.81,2.83v8.59h-4.4v-9.15c0-2.16-.91-3.25-2.72-3.25-.98,0-1.74.34-2.28,1.03-.54.69-.81,1.68-.81,2.97v8.4h-4.4V4h4.03v2.15c.48-.83,1.13-1.47,1.95-1.92s1.76-.67,2.83-.67Z"/><path d="m108.96,19.77c-.77,0-1.37-.15-1.79-.44-.43-.29-.7-.76-.83-1.4-.5.75-1.19,1.32-2.08,1.72-.89.4-1.89.59-3.01.59-1.69,0-3.02-.44-4-1.33s-1.47-2.09-1.47-3.61c0-1.71.62-3.03,1.87-3.98,1.25-.95,3.02-1.42,5.31-1.42h2.53c-.06-1.02-.37-1.76-.92-2.22-.55-.46-1.4-.69-2.54-.69-1.44,0-2.82.41-4.15,1.22l-1.25-2.9c.73-.54,1.62-.97,2.67-1.28,1.05-.31,2.16-.47,3.32-.47,2.29,0,4.07.59,5.34,1.76,1.27,1.18,1.9,2.82,1.9,4.92v5.93h1.9v3.59h-2.81Zm-8.99-4.96c0,.67.21,1.18.64,1.54.43.36,1.02.55,1.8.55.94,0,1.69-.29,2.26-.87.57-.58.86-1.36.86-2.34v-.94h-2.22c-1.17,0-2.01.17-2.54.5-.53.33-.8.85-.8,1.56Z"/><path d="m114.39,26.07V4h4.28v2.12c.58-.81,1.32-1.44,2.2-1.89s1.87-.67,2.95-.67c1.44,0,2.71.36,3.81,1.09,1.1.73,1.95,1.72,2.54,2.98.59,1.26.89,2.68.89,4.26,0,1.66-.32,3.13-.95,4.4-.63,1.27-1.5,2.24-2.59,2.92-1.09.68-2.33,1.02-3.7,1.02-1.08,0-2.06-.21-2.92-.64-.86-.43-1.57-1.06-2.11-1.89v8.37h-4.4Zm8.24-9.68c1.17,0,2.11-.42,2.84-1.25.73-.83,1.09-1.91,1.09-3.25s-.36-2.41-1.09-3.25c-.73-.83-1.68-1.25-2.84-1.25s-2.19.42-2.94,1.25c-.75.83-1.12,1.91-1.12,3.25s.38,2.41,1.12,3.25c.75.83,1.73,1.25,2.94,1.25Z"/><path d="m134.16,26.07V4h4.28v2.12c.58-.81,1.32-1.44,2.2-1.89s1.87-.67,2.95-.67c1.44,0,2.71.36,3.81,1.09,1.1.73,1.95,1.72,2.54,2.98.59,1.26.89,2.68.89,4.26,0,1.66-.32,3.13-.95,4.4-.63,1.27-1.5,2.24-2.59,2.92-1.09.68-2.33,1.02-3.7,1.02-1.08,0-2.06-.21-2.92-.64-.86-.43-1.57-1.06-2.11-1.89v8.37h-4.4Zm8.24-9.68c1.17,0,2.11-.42,2.84-1.25.73-.83,1.09-1.91,1.09-3.25s-.36-2.41-1.09-3.25c-.73-.83-1.68-1.25-2.84-1.25s-2.19.42-2.94,1.25c-.75.83-1.12,1.91-1.12,3.25s.38,2.41,1.12,3.25c.75.83,1.73,1.25,2.94,1.25Z"/></g><g><path d="m72.13,33.95l3.96,10.05h-.99l-1.14-3h-4.73l-1.12,3h-.98l3.96-10.05h1.03Zm-2.58,6.24h4.11l-2.06-5.42-2.06,5.42Z"/><path d="m80.32,44.2c-.91,0-1.61-.28-2.11-.83-.49-.55-.74-1.35-.74-2.38v-4.5h.85v4.46c0,.8.18,1.41.55,1.83.36.42.88.63,1.54.63.73,0,1.32-.24,1.78-.71.46-.47.68-1.12.68-1.95v-4.26h.85v7.51h-.84v-1.25c-.25.47-.6.83-1.04,1.07-.45.25-.95.37-1.52.37Z"/><path d="m92.29,44v-1.51c-.29.53-.69.95-1.21,1.25s-1.08.46-1.69.46c-.7,0-1.32-.18-1.86-.53-.54-.35-.96-.83-1.25-1.42-.29-.59-.44-1.26-.44-1.99,0-.77.16-1.46.48-2.06.32-.6.75-1.07,1.28-1.4.53-.33,1.13-.5,1.79-.5s1.2.15,1.7.45c.5.3.9.72,1.19,1.26v-4.79h.85v10.79h-.84Zm-2.85-.6c.55,0,1.04-.14,1.48-.43s.78-.67,1.01-1.14c.23-.47.35-1,.35-1.58,0-.62-.13-1.17-.39-1.66-.26-.49-.61-.86-1.04-1.12-.43-.26-.91-.39-1.42-.39s-1.01.15-1.43.43c-.42.29-.74.67-.97,1.15-.23.47-.34,1-.34,1.58,0,.61.12,1.16.37,1.63.25.48.58.85.99,1.12.41.26.87.4,1.37.4Z"/><path d="m96.22,44v-6.74h-1.28v-.78h1.31c.29,0,.5.06.63.19.13.13.2.34.2.63v6.69h-.85Zm.22-9.29c-.21,0-.38-.07-.51-.2s-.19-.3-.19-.5.06-.37.19-.5c.13-.14.3-.2.51-.2s.38.07.51.2c.13.13.19.3.19.5s-.06.37-.19.5-.3.2-.51.2Z"/><path d="m102.29,44.2c-.71,0-1.25-.22-1.62-.66-.37-.44-.56-1.08-.56-1.91v-4.37h-1.32v-.78h.84c.21,0,.35-.04.44-.12s.12-.22.12-.42v-1.33h.78v1.88h2.49v.78h-2.49v4.33c0,1.21.48,1.82,1.46,1.82.21,0,.43-.03.65-.08.23-.05.41-.13.56-.22l.2.69c-.17.12-.4.21-.68.29-.28.07-.57.11-.87.11Z"/></g></svg>