<?xml version="1.0" encoding="UTF-8"?><svg id="pictogram" xmlns="http://www.w3.org/2000/svg" viewBox="0 0 155 48"><g><path d="M74.32,35.38c-.32-.24-.73-.43-1.21-.58-.49-.15-.97-.22-1.43-.22-.82,0-1.46,.17-1.92,.5-.46,.33-.69,.79-.69,1.38,0,1.01,.74,1.66,2.22,1.93l.84,.17c.99,.2,1.72,.53,2.19,.99,.47,.46,.71,1.08,.71,1.86,0,.88-.33,1.56-.98,2.04-.65,.48-1.56,.72-2.75,.72-.64,0-1.25-.09-1.84-.28-.59-.19-1.08-.43-1.46-.74l.39-.72c.35,.27,.79,.49,1.32,.64,.53,.16,1.07,.24,1.62,.24,.9,0,1.58-.16,2.05-.48,.47-.32,.71-.79,.71-1.41,0-.55-.18-.99-.55-1.32-.37-.33-.94-.57-1.73-.72l-.79-.15c-.98-.19-1.71-.5-2.18-.94-.47-.44-.71-1.04-.71-1.79,0-.84,.32-1.51,.95-2.02,.63-.5,1.48-.76,2.54-.76,.58,0,1.15,.08,1.7,.25,.55,.17,1.02,.41,1.39,.71l-.4,.71Z"/><path d="M83.35,43.33c-.32,.26-.72,.46-1.2,.61-.48,.14-1.01,.22-1.58,.22-1.17,0-2.1-.36-2.78-1.07-.68-.71-1.03-1.67-1.03-2.89,0-.77,.16-1.46,.47-2.06,.32-.61,.74-1.07,1.28-1.4,.54-.32,1.14-.49,1.8-.49,.95,0,1.71,.33,2.28,.99,.57,.66,.86,1.55,.86,2.67v.48h-5.83c.03,.94,.3,1.67,.83,2.2,.52,.52,1.23,.79,2.13,.79,.49,0,.95-.06,1.38-.19,.43-.12,.79-.3,1.08-.53l.31,.67Zm-3.06-6.3c-.72,0-1.32,.24-1.81,.72-.49,.48-.77,1.12-.85,1.92h4.98c-.03-.82-.25-1.46-.67-1.93-.42-.47-.97-.71-1.66-.71Z"/><path d="M89.45,37.22c-.09-.03-.3-.04-.63-.04-.77,0-1.38,.24-1.83,.73-.45,.49-.67,1.14-.67,1.97v4.08h-.86v-7.51h.84v1.48c.24-.51,.58-.9,1.02-1.16,.44-.26,.95-.4,1.54-.4,.17,0,.36,.02,.58,.06v.79Z"/><path d="M93.34,43.96l-3-7.51h.9l2.5,6.57,2.52-6.57h.88l-3,7.51h-.81Z"/><path d="M99.25,43.96v-6.74h-1.28v-.78h1.3c.29,0,.5,.06,.63,.19,.13,.13,.2,.34,.2,.63v6.69h-.85Zm.22-9.29c-.21,0-.38-.07-.51-.2s-.2-.3-.2-.5,.07-.37,.2-.5c.13-.14,.3-.2,.51-.2s.38,.07,.51,.2c.13,.13,.2,.3,.2,.5s-.07,.37-.2,.5-.3,.2-.51,.2Z"/><path d="M105.8,44.15c-1.07,0-1.94-.37-2.61-1.1-.67-.73-1-1.68-1-2.85,0-.79,.16-1.49,.47-2.08,.31-.6,.74-1.06,1.29-1.39,.54-.32,1.16-.49,1.85-.49,1.14,0,2.02,.31,2.64,.93l-.43,.65c-.55-.52-1.28-.78-2.19-.78-.82,0-1.48,.29-1.99,.87s-.76,1.34-.76,2.29,.25,1.7,.76,2.28,1.17,.87,1.99,.87c.47,0,.92-.07,1.33-.22s.75-.33,.97-.56l.38,.67c-.3,.28-.68,.5-1.15,.66-.47,.16-.99,.24-1.54,.24Z"/><path d="M116.12,43.33c-.32,.26-.72,.46-1.2,.61-.48,.14-1.01,.22-1.58,.22-1.17,0-2.1-.36-2.78-1.07-.68-.71-1.03-1.67-1.03-2.89,0-.77,.16-1.46,.47-2.06,.32-.61,.74-1.07,1.28-1.4,.54-.32,1.14-.49,1.8-.49,.95,0,1.71,.33,2.28,.99,.57,.66,.86,1.55,.86,2.67v.48h-5.83c.03,.94,.3,1.67,.83,2.2,.52,.52,1.23,.79,2.13,.79,.49,0,.95-.06,1.38-.19,.43-.12,.79-.3,1.08-.53l.31,.67Zm-3.06-6.3c-.72,0-1.32,.24-1.81,.72-.49,.48-.77,1.12-.85,1.92h4.98c-.03-.82-.25-1.46-.67-1.93-.42-.47-.97-.71-1.66-.71Z"/><path d="M120.88,44.15c-.6,0-1.17-.07-1.69-.21-.53-.14-.99-.35-1.37-.62l.32-.67c.35,.23,.77,.41,1.25,.53s.99,.19,1.51,.19c.55,0,.99-.13,1.32-.38,.33-.25,.5-.6,.5-1.03,0-.35-.13-.64-.4-.86-.26-.22-.68-.39-1.25-.5l-.96-.19c-.73-.14-1.27-.38-1.61-.71-.35-.33-.52-.78-.52-1.34,0-.64,.24-1.15,.73-1.53,.48-.38,1.14-.57,1.96-.57,.53,0,1.03,.07,1.49,.2s.86,.32,1.2,.57l-.34,.68c-.29-.2-.64-.36-1.06-.48s-.85-.18-1.29-.18c-.54,0-.98,.12-1.31,.36-.33,.24-.5,.55-.5,.93,0,.66,.44,1.08,1.32,1.25l1.04,.21c.84,.17,1.45,.43,1.83,.77,.38,.34,.57,.81,.57,1.4,0,.67-.24,1.21-.73,1.6-.49,.4-1.15,.6-1.99,.6Z"/></g><g><path d="M76.81,3.56c1.06,0,1.98,.28,2.76,.83,.78,.55,1.38,1.35,1.8,2.39,.52-1.04,1.27-1.84,2.25-2.39,.98-.55,2.11-.83,3.4-.83,1.81,0,3.23,.6,4.26,1.8,1.03,1.2,1.55,2.86,1.55,4.98v9.43h-4.4V10.62c0-2.16-.91-3.25-2.72-3.25-.98,0-1.74,.33-2.28,.98-.54,.66-.81,1.6-.81,2.83v8.59h-4.4V10.62c0-2.16-.91-3.25-2.72-3.25-.98,0-1.74,.34-2.28,1.03-.54,.69-.81,1.68-.81,2.97v8.4h-4.4V4h4.03v2.15c.48-.83,1.13-1.47,1.95-1.92s1.76-.67,2.83-.67Z"/><path d="M108.97,19.77c-.77,0-1.37-.15-1.79-.44-.43-.29-.7-.76-.83-1.4-.5,.75-1.19,1.32-2.08,1.72-.89,.4-1.89,.59-3.01,.59-1.69,0-3.02-.44-4-1.33s-1.47-2.09-1.47-3.61c0-1.71,.62-3.03,1.87-3.98,1.25-.95,3.02-1.42,5.31-1.42h2.53c-.06-1.02-.37-1.76-.92-2.22-.55-.46-1.4-.69-2.54-.69-1.44,0-2.82,.41-4.15,1.22l-1.25-2.9c.73-.54,1.62-.97,2.67-1.28,1.05-.31,2.16-.47,3.32-.47,2.29,0,4.07,.59,5.34,1.76,1.27,1.18,1.9,2.82,1.9,4.92v5.93h1.9v3.59h-2.81Zm-8.99-4.96c0,.67,.21,1.18,.64,1.54,.43,.36,1.02,.55,1.8,.55,.94,0,1.69-.29,2.26-.87,.57-.58,.86-1.36,.86-2.34v-.94h-2.22c-1.17,0-2.01,.17-2.54,.5-.53,.33-.8,.85-.8,1.56Z"/><path d="M114.4,26.07V4h4.28v2.12c.58-.81,1.32-1.44,2.2-1.89s1.87-.67,2.95-.67c1.44,0,2.71,.36,3.81,1.09,1.1,.73,1.95,1.72,2.54,2.98,.59,1.26,.89,2.68,.89,4.26,0,1.66-.32,3.13-.95,4.4-.63,1.27-1.5,2.24-2.59,2.92-1.09,.68-2.33,1.02-3.7,1.02-1.08,0-2.06-.21-2.92-.64-.86-.43-1.57-1.06-2.11-1.89v8.37h-4.4Zm8.24-9.68c1.17,0,2.11-.42,2.84-1.25,.73-.83,1.09-1.91,1.09-3.25s-.36-2.41-1.09-3.25c-.73-.83-1.68-1.25-2.84-1.25s-2.19,.42-2.94,1.25c-.75,.83-1.12,1.91-1.12,3.25s.38,2.41,1.12,3.25c.75,.83,1.73,1.25,2.94,1.25Z"/><path d="M134.16,26.07V4h4.28v2.12c.58-.81,1.32-1.44,2.2-1.89s1.87-.67,2.95-.67c1.44,0,2.71,.36,3.81,1.09,1.1,.73,1.95,1.72,2.54,2.98,.59,1.26,.89,2.68,.89,4.26,0,1.66-.32,3.13-.95,4.4-.63,1.27-1.5,2.24-2.59,2.92-1.09,.68-2.33,1.02-3.7,1.02-1.08,0-2.06-.21-2.92-.64-.86-.43-1.57-1.06-2.11-1.89v8.37h-4.4Zm8.24-9.68c1.17,0,2.11-.42,2.84-1.25,.73-.83,1.09-1.91,1.09-3.25s-.36-2.41-1.09-3.25c-.73-.83-1.68-1.25-2.84-1.25s-2.19,.42-2.94,1.25c-.75,.83-1.12,1.91-1.12,3.25s.38,2.41,1.12,3.25c.75,.83,1.73,1.25,2.94,1.25Z"/></g><g><path d="M9.35,31.03l1.46-1.46c.92,.69,2.01,1.15,3.19,1.32v2.07h2v-2.07c1.18-.17,2.27-.64,3.19-1.32l1.46,1.46,1.41-1.41-1.46-1.46c.69-.92,1.15-2.01,1.32-3.19h2.07v-2h-2.07c-.17-1.18-.64-2.27-1.32-3.18l1.47-1.47-1.41-1.41-1.47,1.47c-.92-.69-2.01-1.16-3.2-1.33v-2.07h-2v2.07c-1.18,.17-2.27,.64-3.19,1.32l-1.46-1.46-1.41,1.41,1.46,1.46c-.69,.92-1.15,2.01-1.32,3.19h-2.07v2h2.07c.17,1.18,.64,2.27,1.32,3.19l-1.46,1.46,1.41,1.41Zm5.65-12.07c2.76,0,5,2.24,5,5s-2.24,5-5,5-5-2.24-5-5,2.24-5,5-5Z"/><path d="M24,13.96v2h2.07c.17,1.18,.64,2.27,1.32,3.19l-1.46,1.46,1.41,1.41,1.46-1.46c.92,.69,2.01,1.15,3.19,1.32v2.07h2v-2.07c1.18-.17,2.27-.64,3.19-1.32l1.46,1.46,1.41-1.41-1.46-1.46c.69-.92,1.15-2.01,1.32-3.19h2.07v-2h-2.07c-.17-1.18-.64-2.27-1.32-3.19l1.47-1.46-1.41-1.42-1.47,1.47c-.92-.69-2.01-1.16-3.19-1.33v-2.07h-2v2.07c-1.18,.17-2.27,.64-3.19,1.32l-1.46-1.46-1.41,1.41,1.46,1.46c-.69,.92-1.15,2.01-1.32,3.19h-2.07Zm9-4c2.76,0,5,2.24,5,5s-2.24,5-5,5-5-2.24-5-5,2.24-5,5-5Z"/><path d="M41,31.96l-1,1v.61l-4.84-1.61h-12.16c-1.65,0-3,1.35-3,3s1.35,3,3,3h1.39l-1.67,1h-7.62c-1.52,0-2.83,1.08-3.07,2.5-.14,.88,.1,1.77,.67,2.44s1.4,1.06,2.29,1.06h8.06l8-1h8.94v1l1,1h4l1-1v-12l-1-1h-4Zm-10,10l-8.06,1h-7.94c-.29,0-.57-.13-.76-.35-.19-.23-.27-.52-.22-.82,.08-.46,.56-.83,1.09-.83h8.17l5-3h2.72v-2h-8c-.55,0-1-.45-1-1s.45-1,1-1h11.84l5.16,1.72v6.28h-9Zm13,2h-2v-10h2v10Z"/><polygon points="45 1.96 3 1.96 2 2.96 2 3 2 36.96 3 37.96 10 37.96 10 35.96 4 35.96 4 4 44 4 44 29.96 46 29.96 46 2.96 45 1.96"/></g></svg>