<?xml version="1.0" encoding="UTF-8"?><svg id="Warstwa_4" xmlns="http://www.w3.org/2000/svg" viewBox="0 0 44 44"><path d="m10.58,33v-4.15h4.15l1-1v-4.15h2.43l.71-.29,2.24-2.24c3.52.74,7.21-.35,9.77-2.91,4.17-4.17,4.17-10.96,0-15.14-4.17-4.17-10.96-4.17-15.14,0-2.19,2.19-3.31,5.18-3.11,8.26L.29,23.71l-.29.71v8.58l1,1h8.58l1-1Zm-2-1H2v-7.16l12.36-12.36.29-.82c-.29-2.64.62-5.23,2.5-7.11,3.39-3.39,8.91-3.39,12.31,0,3.39,3.39,3.39,8.91,0,12.31-2.19,2.19-5.41,3.05-8.41,2.25l-1.03.32-2.28,2.28h-3.02l-1,1v4.15h-4.15l-1,1v4.15Z"/><path d="m22.07,13.85c.52.25,1.08.37,1.64.37.44,0,.89-.08,1.32-.23h0c.97-.35,1.75-1.06,2.19-2,.44-.94.49-1.99.14-2.96-.72-2.01-2.95-3.05-4.95-2.33-2.01.72-3.05,2.95-2.32,4.95.35.97,1.06,1.75,1.99,2.19Zm1.01-5.26c.21-.07.42-.11.64-.11.27,0,.54.06.79.18.45.21.79.59.96,1.06.17.47.15.98-.07,1.43-.21.45-.59.79-1.06.96-.47.17-.98.15-1.43-.07-.45-.21-.79-.59-.96-1.06-.35-.97.15-2.04,1.12-2.39Z"/><path d="m43,30h-4l-1,1v.51l-4.38-1.46-.32-.05h-11.92c-1.35,0-2.55.84-2.93,2.05-.3.95-.15,1.94.43,2.72.56.77,1.47,1.23,2.42,1.23h1.39l-1.67,1h-7.64c-1.35,0-2.55.84-2.93,2.05-.3.95-.15,1.94.43,2.72.56.77,1.47,1.23,2.42,1.23h8l8.06-1h8.64v1l1,1h4l1-1v-12l-1-1Zm-13.7,10l-8.06,1h-7.94c-.32,0-.62-.15-.81-.41-.11-.15-.28-.48-.14-.94.12-.38.55-.65,1.03-.65h7.92l.51-.14,4.76-2.86h2.42v-2h-7.7c-.32,0-.62-.15-.81-.41-.11-.15-.28-.48-.14-.94.12-.38.55-.65,1.03-.65h11.75l4.86,1.62v6.38h-8.7Zm12.7,2h-2v-10h2v10Z"/></svg>