<?xml version="1.0" encoding="UTF-8"?><svg id="Warstwa_4" xmlns="http://www.w3.org/2000/svg" viewBox="0 0 44 44"><path d="m7.35,29.07l1.46-1.46c.92.69,2.01,1.15,3.19,1.32v2.07h2v-2.07c1.18-.17,2.27-.64,3.19-1.32l1.46,1.46,1.41-1.41-1.46-1.46c.69-.92,1.15-2.01,1.32-3.19h2.07v-2h-2.07c-.17-1.18-.64-2.27-1.32-3.18l1.47-1.47-1.41-1.41-1.47,1.47c-.92-.69-2.01-1.16-3.2-1.33v-2.07h-2v2.07c-1.18.17-2.27.64-3.19,1.32l-1.46-1.46-1.41,1.41,1.46,1.46c-.69.92-1.15,2.01-1.32,3.19h-2.07v2h2.07c.17,1.18.64,2.27,1.32,3.19l-1.46,1.46,1.41,1.41Zm5.65-12.07c2.76,0,5,2.24,5,5s-2.24,5-5,5-5-2.24-5-5,2.24-5,5-5Z"/><path d="m22,12v2h2.07c.17,1.18.64,2.27,1.32,3.19l-1.46,1.46,1.41,1.41,1.46-1.46c.92.69,2.01,1.15,3.19,1.32v2.07h2v-2.07c1.18-.17,2.27-.64,3.19-1.32l1.46,1.46,1.41-1.41-1.46-1.46c.69-.92,1.15-2.01,1.32-3.19h2.07v-2h-2.07c-.17-1.18-.64-2.27-1.32-3.19l1.47-1.46-1.41-1.42-1.47,1.47c-.92-.69-2.01-1.16-3.19-1.33v-2.07h-2v2.07c-1.18.17-2.27.64-3.19,1.32l-1.46-1.46-1.41,1.41,1.46,1.46c-.69.92-1.15,2.01-1.32,3.19h-2.07Zm9-4c2.76,0,5,2.24,5,5s-2.24,5-5,5-5-2.24-5-5,2.24-5,5-5Z"/><path d="m39,30l-1,1v.61l-4.84-1.61h-12.16c-1.65,0-3,1.35-3,3s1.35,3,3,3h1.39l-1.67,1h-7.62c-1.52,0-2.83,1.08-3.07,2.5-.14.88.1,1.77.67,2.44s1.4,1.06,2.29,1.06h8.06l8-1h8.94v1l1,1h4l1-1v-12l-1-1h-4Zm-10,10l-8.06,1h-7.94c-.29,0-.57-.13-.76-.35-.19-.23-.27-.52-.22-.82.08-.46.56-.83,1.09-.83h8.17l5-3h2.72v-2h-8c-.55,0-1-.45-1-1s.45-1,1-1h11.84l5.16,1.72v6.28h-9Zm13,2h-2v-10h2v10Z"/><polygon points="43 0 1 0 0 1 0 1.04 0 35 1 36 8 36 8 34 2 34 2 2 42 2 42 28 44 28 44 1 43 0"/></svg>