<?xml version="1.0" encoding="UTF-8"?><svg id="pictogram" xmlns="http://www.w3.org/2000/svg" viewBox="0 0 155 48"><g><path d="m9.54,11.28l-1.57-1.24c-1.32,1.67-2.04,3.8-2.04,6.01,0,2.33.79,4.55,2.24,6.25l1.53-1.29c-1.14-1.34-1.76-3.1-1.76-4.96s.57-3.46,1.61-4.77Z"/><path d="m6.77,8.06l-1.54-1.27c-2.08,2.52-3.23,5.76-3.23,9.14s1.15,6.62,3.23,9.14l1.54-1.27c-1.79-2.16-2.77-4.95-2.77-7.86s.98-5.7,2.77-7.86Z"/><path d="m39.69,22.3c1.44-1.7,2.24-3.92,2.24-6.25s-.73-4.35-2.04-6.01l-1.57,1.24c1.04,1.31,1.61,3.01,1.61,4.77,0,1.86-.63,3.62-1.76,4.96l1.53,1.29Z"/><path d="m41.08,23.79l1.54,1.27c2.08-2.52,3.23-5.76,3.23-9.14s-1.15-6.62-3.23-9.14l-1.54,1.27c1.79,2.16,2.77,4.95,2.77,7.86s-.98,5.7-2.77,7.86Z"/><rect x="23" y="9" width="2" height="10"/><rect x="23" y="21" width="2" height="2"/><path d="m24,28c6.62,0,12-5.38,12-12s-5.38-12-12-12-12,5.38-12,12,5.38,12,12,12Zm0-22c5.51,0,10,4.49,10,10s-4.49,10-10,10-10-4.49-10-10,4.49-10,10-10Z"/><path d="m45,30h-4l-1,1v.51l-4.38-1.46-.32-.05h-11.92c-1.35,0-2.55.84-2.93,2.05-.3.95-.15,1.94.43,2.73.56.77,1.47,1.23,2.42,1.23h1.39l-1.67,1h-7.64c-1.35,0-2.55.84-2.93,2.05-.3.95-.15,1.94.43,2.73.56.77,1.47,1.23,2.42,1.23h8l8.06-1h8.64v1l1,1h4l1-1v-12l-1-1Zm-13.7,10l-8.06,1h-7.94c-.32,0-.62-.15-.81-.41-.11-.15-.28-.48-.14-.94.12-.38.55-.65,1.03-.65h7.92l.51-.14,4.76-2.86h2.42v-2h-7.7c-.32,0-.62-.15-.81-.41-.11-.15-.28-.48-.14-.94.12-.38.55-.65,1.03-.65h11.75l4.86,1.62v6.38h-8.7Zm12.7,2h-2v-10h2v10Z"/></g><g><path d="m76.81,3.56c1.06,0,1.98.28,2.76.83.78.55,1.38,1.35,1.8,2.39.52-1.04,1.27-1.84,2.25-2.39.98-.55,2.11-.83,3.4-.83,1.81,0,3.23.6,4.26,1.8,1.03,1.2,1.55,2.86,1.55,4.98v9.43h-4.4v-9.15c0-2.16-.91-3.25-2.72-3.25-.98,0-1.74.33-2.28.98-.54.66-.81,1.6-.81,2.83v8.59h-4.4v-9.15c0-2.16-.91-3.25-2.72-3.25-.98,0-1.74.34-2.28,1.03-.54.69-.81,1.68-.81,2.97v8.4h-4.4V4h4.03v2.15c.48-.83,1.13-1.47,1.95-1.92s1.76-.67,2.83-.67Z"/><path d="m108.97,19.77c-.77,0-1.37-.15-1.79-.44-.43-.29-.7-.76-.83-1.4-.5.75-1.19,1.32-2.08,1.72-.89.4-1.89.59-3.01.59-1.69,0-3.02-.44-4-1.33s-1.47-2.09-1.47-3.61c0-1.71.62-3.03,1.87-3.98,1.25-.95,3.02-1.42,5.31-1.42h2.53c-.06-1.02-.37-1.76-.92-2.22-.55-.46-1.4-.69-2.54-.69-1.44,0-2.82.41-4.15,1.22l-1.25-2.9c.73-.54,1.62-.97,2.67-1.28,1.05-.31,2.16-.47,3.32-.47,2.29,0,4.07.59,5.34,1.76,1.27,1.18,1.9,2.82,1.9,4.92v5.93h1.9v3.59h-2.81Zm-8.99-4.96c0,.67.21,1.18.64,1.54.43.36,1.02.55,1.8.55.94,0,1.69-.29,2.26-.87.57-.58.86-1.36.86-2.34v-.94h-2.22c-1.17,0-2.01.17-2.54.5-.53.33-.8.85-.8,1.56Z"/><path d="m114.4,26.07V4h4.28v2.12c.58-.81,1.32-1.44,2.2-1.89s1.87-.67,2.95-.67c1.44,0,2.71.36,3.81,1.09,1.1.73,1.95,1.72,2.54,2.98.59,1.26.89,2.68.89,4.26,0,1.66-.32,3.13-.95,4.4-.63,1.27-1.5,2.24-2.59,2.92-1.09.68-2.33,1.02-3.7,1.02-1.08,0-2.06-.21-2.92-.64-.86-.43-1.57-1.06-2.11-1.89v8.37h-4.4Zm8.24-9.68c1.17,0,2.11-.42,2.84-1.25.73-.83,1.09-1.91,1.09-3.25s-.36-2.41-1.09-3.25c-.73-.83-1.68-1.25-2.84-1.25s-2.19.42-2.94,1.25c-.75.83-1.12,1.91-1.12,3.25s.38,2.41,1.12,3.25c.75.83,1.73,1.25,2.94,1.25Z"/><path d="m134.16,26.07V4h4.28v2.12c.58-.81,1.32-1.44,2.2-1.89s1.87-.67,2.95-.67c1.44,0,2.71.36,3.81,1.09,1.1.73,1.95,1.72,2.54,2.98.59,1.26.89,2.68.89,4.26,0,1.66-.32,3.13-.95,4.4-.63,1.27-1.5,2.24-2.59,2.92-1.09.68-2.33,1.02-3.7,1.02-1.08,0-2.06-.21-2.92-.64-.86-.43-1.57-1.06-2.11-1.89v8.37h-4.4Zm8.24-9.68c1.17,0,2.11-.42,2.84-1.25.73-.83,1.09-1.91,1.09-3.25s-.36-2.41-1.09-3.25c-.73-.83-1.68-1.25-2.84-1.25s-2.19.42-2.94,1.25c-.75.83-1.12,1.91-1.12,3.25s.38,2.41,1.12,3.25c.75.83,1.73,1.25,2.94,1.25Z"/></g><g><path d="m72.13,33.95l3.96,10.05h-.99l-1.14-3h-4.73l-1.12,3h-.98l3.96-10.05h1.03Zm-2.58,6.24h4.11l-2.06-5.42-2.06,5.42Z"/><path d="m77.53,44v-10.79h.85v10.79h-.85Z"/><path d="m86.41,44c-.3,0-.52-.06-.65-.2-.13-.13-.2-.34-.2-.64v-.13c-.23.38-.56.67-1,.87-.44.2-.95.3-1.53.3-.8,0-1.44-.2-1.91-.61-.48-.41-.71-.96-.71-1.66,0-.76.28-1.35.85-1.76.57-.42,1.37-.62,2.42-.62h1.86v-.13c0-.75-.19-1.33-.58-1.73-.39-.41-.94-.61-1.66-.61-.41,0-.8.06-1.18.17-.38.12-.71.28-1,.49l-.33-.65c.28-.24.65-.43,1.12-.58.47-.15.95-.22,1.43-.22.95,0,1.69.27,2.23.82.53.54.8,1.31.8,2.29v3.83h1.1v.78h-1.06Zm-5.15-2.08c0,.49.17.87.5,1.13.33.26.8.4,1.4.4.68,0,1.25-.19,1.69-.56.45-.38.68-.85.68-1.43v-1.2h-1.8c-.8,0-1.41.14-1.84.43-.43.29-.64.7-.64,1.24Z"/><path d="m93.23,37.26c-.09-.03-.3-.04-.63-.04-.77,0-1.38.24-1.83.73-.45.49-.67,1.14-.67,1.97v4.08h-.85v-7.51h.84v1.48c.24-.51.58-.9,1.02-1.16.44-.26.95-.4,1.54-.4.17,0,.36.02.58.06v.79Z"/><path d="m98.27,36.29c.62,0,1.14.16,1.56.47.42.31.72.77.9,1.36.22-.57.58-1.02,1.08-1.34.5-.32,1.07-.49,1.71-.49.89,0,1.58.28,2.06.83.48.56.72,1.35.72,2.38v4.5h-.85v-4.46c0-.79-.17-1.4-.52-1.82-.35-.42-.84-.64-1.49-.64-.72,0-1.3.23-1.73.68s-.65,1.06-.65,1.82v4.41h-.85v-4.46c0-.79-.17-1.4-.52-1.82-.35-.42-.84-.64-1.49-.64-.72,0-1.3.23-1.73.68s-.65,1.06-.65,1.82v4.41h-.85v-7.51h.84v1.26c.26-.47.6-.83,1.04-1.08.43-.25.92-.38,1.45-.38Z"/><path d="m115.18,44l-3.13-4.54-3.08,4.54h-1.03l3.6-5.22-3.36-4.83h1.05l2.91,4.21,2.83-4.21h1.04l-3.36,4.88,3.58,5.17h-1.05Z"/></g></svg>