<?xml version="1.0" encoding="UTF-8"?>
<svg width="24px" height="24px" viewBox="0 0 24 24" version="1.1" xmlns="http://www.w3.org/2000/svg" xmlns:xlink="http://www.w3.org/1999/xlink">
    <title>Icons/SYS_Kessel</title>
    <g id="Icons" stroke="none" stroke-width="1"   fill-rule="evenodd">
        <g transform="translate(-60.000000, -1928.000000)" id="Icons-System">
            <g transform="translate(60.000000, 1811.000000)">
                <g id="Icons/SYS_Kessel" transform="translate(0.000000, 117.000000)">
                    <rect id="boundingBox"   opacity="0" x="0" y="0" width="24" height="24"></rect>
                    <path d="M22.3207547,8.83018868 L22.3207547,0 L19.2075472,0 L19.2075472,7.30188679 L16.7169811,7.30188679 L16.7169811,5.37735849 C16.7169811,5.03773585 16.4339623,4.75471698 16.0943396,4.75471698 L2.62264151,4.75471698 C2.28301887,4.75471698 2,5.03773585 2,5.37735849 L2,23.3773585 C2,23.7169811 2.28301887,24 2.62264151,24 L16.0943396,24 C16.4339623,24 16.7169811,23.7169811 16.7169811,23.3773585 L16.7169811,10.3584906 L20.7358491,10.3584906 C21.6415094,10.4150943 22.3207547,9.67924528 22.3207547,8.83018868 Z M15.4150943,6 L15.4150943,22.754717 L3.24528302,22.754717 L3.24528302,6 L15.4150943,6 Z M13.1627907,8.93023256 L5.40465116,8.93023256 C4.62325581,8.93023256 3.95348837,9.6 3.95348837,10.3813953 L3.95348837,18.1395349 C3.95348837,18.9209302 4.56744186,19.5348837 5.40465116,19.5348837 L13.1627907,19.5348837 C13.944186,19.5348837 14.6139535,18.8651163 14.6139535,18.0837209 L14.6139535,10.3813953 C14.6139535,9.6 13.944186,8.93023256 13.1627907,8.93023256 Z M13.1627907,9.65581395 C13.5534884,9.65581395 13.8883721,9.99069767 13.8883721,10.3813953 L13.8883721,18.1395349 C13.8883721,18.5302326 13.5534884,18.8651163 13.1627907,18.8651163 L11.0418605,18.8651163 C11.3767442,18.6976744 11.655814,18.4186047 11.655814,18.4186047 C11.655814,18.4186047 12.772093,17.5255814 12.772093,16.1302326 C12.772093,14.7348837 11.655814,13.0604651 11.655814,13.0604651 C11.655814,13.0604651 11.7674419,14.2883721 11.4325581,15.1813953 C11.0418605,16.2418605 10.5953488,16.5209302 10.5953488,16.5209302 C10.5953488,16.5209302 9.9255814,17.1348837 9.86976744,17.9162791 C9.86976744,18.3069767 9.9255814,18.5860465 9.98139535,18.8093023 L9.31162791,18.8093023 C9.2,18.5860465 9.08837209,18.3069767 9.08837209,17.8604651 C9.08837209,16.855814 10.1488372,15.7953488 10.5953488,15.0697674 C11.0418605,14.4 11.0418605,13.0604651 10.7627907,12.3348837 C10.4837209,11.6651163 9.64651163,10.9395349 9.64651163,10.9395349 C9.64651163,10.9395349 9.81395349,11.3302326 9.64651163,11.944186 C9.47906977,12.5581395 8.30697674,13.0046512 7.5255814,14.1767442 C6.74418605,15.3488372 6.96744186,16.6883721 6.96744186,16.6883721 C6.96744186,16.6883721 7.07906977,17.6930233 7.80465116,18.2511628 C8.08372093,18.4744186 8.41860465,18.6418605 8.75348837,18.8093023 L7.58139535,18.8093023 L7.43375477,18.661889 C6.99853545,18.2225799 6.12366621,17.2694938 6.0744186,16.1860465 C6.01860465,15.4046512 6.24186047,14.7348837 6.57674419,14.2325581 C6.96744186,13.6744186 7.69302326,12.9488372 7.69302326,12.9488372 C7.69302326,12.9488372 6.40930233,13.172093 5.68372093,14.6790698 C5.01395349,16.1860465 6.0744186,17.5255814 6.0744186,17.5255814 C6.0744186,17.5255814 6.35348837,17.8604651 6.68837209,18.1953488 C6.96744186,18.4186047 7.30232558,18.6418605 7.5255814,18.7534884 L5.40465116,18.7534884 C5.01395349,18.7534884 4.67906977,18.4186047 4.67906977,18.027907 L4.67906977,10.3813953 L4.62325581,10.3813953 C4.62325581,9.99069767 4.95813953,9.65581395 5.34883721,9.65581395 L13.1627907,9.65581395 Z" id="base"  ></path>
                </g>
            </g>
        </g>
    </g>
</svg>