<?xml version="1.0" encoding="UTF-8"?>
<svg width="24px" height="24px" viewBox="0 0 24 24" version="1.1" xmlns="http://www.w3.org/2000/svg" xmlns:xlink="http://www.w3.org/1999/xlink">
    <title>Icons/MODE_Heating</title>
    <g id="Icons" stroke="none" stroke-width="1"   fill-rule="evenodd">
        <g transform="translate(-924.000000, -1155.000000)" id="Icons-Modes">
            <g transform="translate(924.000000, 692.000000)">
                <g id="Icons/MODE_Heating" transform="translate(0.000000, 463.000000)">
                    <rect id="boundingBox"   opacity="0" x="0" y="0" width="24" height="24"></rect>
                    <path d="M2.957,19.5 C2.41079038,19.5 1.968,19.0572096 1.968,18.511 C1.968,17.9647904 2.41079038,17.522 2.957,17.522 L21.046,17.522 C21.5922096,17.522 22.035,17.9647904 22.035,18.511 C22.035,19.0572096 21.5922096,19.5 21.046,19.5 L2.957,19.5 Z M15.764,16.546 C15.357807,16.188654 15.304506,15.5750317 15.643,15.153 C16.0491091,14.6450905 16.371502,14.0755862 16.598,13.466 C16.7086619,12.8419072 16.5327713,12.2011366 16.119,11.721 C16.0092973,11.5694835 15.8907583,11.4245655 15.764,11.287 C14.8956952,10.4121292 14.2874256,9.31329725 14.007,8.113 C13.8132003,6.64273516 14.3779197,5.17446481 15.507,4.213 C15.7023469,4.04803629 15.956887,3.97057062 16.2110124,3.99874375 C16.4651378,4.02691688 16.6965293,4.15825442 16.851,4.362 C17.1803327,4.7877195 17.1188155,5.39673992 16.711,5.748 C16.1391297,6.23673493 15.8308607,6.96628029 15.879,7.717 C16.1011231,8.56631636 16.5505678,9.33901553 17.179,9.952 C17.3771243,10.1636635 17.5577187,10.3910788 17.719,10.632 C18.4561144,11.6038354 18.7158414,12.856182 18.426,14.041 C18.1264772,14.9017329 17.6820824,15.7049578 17.112,16.416 C16.9539385,16.6165111 16.7205387,16.7433982 16.4663146,16.767025 C16.2120905,16.7906518 15.959305,16.7089491 15.767,16.541 L15.764,16.546 Z M11.187,16.546 C10.7817862,16.1881597 10.7285558,15.5753498 11.066,15.153 C11.472223,14.6451676 11.7946266,14.0756442 12.021,13.466 C12.1316842,12.8415967 11.9558085,12.2005132 11.542,11.72 C11.432306,11.5687946 11.3137658,11.4242089 11.187,11.287 C10.3190598,10.4120084 9.71114261,9.31318775 9.431,8.113 C9.2368219,6.64269031 9.80160873,5.17424455 10.931,4.213 C11.1262964,4.04836517 11.3806043,3.97110035 11.6344782,3.99926655 C11.8883521,4.02743275 12.1195398,4.15856121 12.274,4.362 C12.6033327,4.7877195 12.5418155,5.39673992 12.134,5.748 C11.5627812,6.23721142 11.2546565,6.96641537 11.302,7.717 C11.5239344,8.56639419 11.9734069,9.33914105 12.602,9.952 C12.7998021,10.1636815 12.9800628,10.3910976 13.141,10.632 C13.8781948,11.6037921 14.1382658,12.8560269 13.849,14.041 C13.5491545,14.9015887 13.1047888,15.704761 12.535,16.416 C12.3767552,16.6165698 12.1431862,16.7434748 11.8888015,16.767099 C11.6344169,16.7907231 11.381473,16.7089994 11.189,16.541 L11.187,16.546 Z M6.613,16.546 C6.20680702,16.188654 6.15350602,15.5750317 6.492,15.153 C6.89774166,14.6450128 7.21979346,14.0755145 7.446,13.466 C7.55683033,12.84159 7.38093761,12.2004445 6.967,11.72 C6.85758509,11.5688559 6.73938128,11.4242732 6.613,11.287 C5.74490695,10.4119704 5.13667258,9.31320214 4.856,8.113 C4.6618219,6.64269031 5.22660873,5.17424455 6.356,4.213 C6.55129636,4.04836517 6.80560434,3.97110035 7.05947825,3.99926655 C7.31335215,4.02743275 7.54453981,4.15856121 7.699,4.362 C8.02833271,4.7877195 7.96681549,5.39673992 7.559,5.748 C6.9871297,6.23673493 6.67886066,6.96628029 6.727,7.717 C6.94905435,8.56605513 7.39852254,9.33844892 8.027,9.951 C8.22512761,10.1626607 8.40572229,10.3900762 8.567,10.631 C9.3039806,11.6028962 9.56369436,12.8551794 9.274,14.04 C8.97447722,14.9007329 8.53008244,15.7039578 7.96,16.415 C7.80193855,16.6155111 7.56853866,16.7423982 7.31431459,16.766025 C7.06009052,16.7896518 6.80730496,16.7079491 6.615,16.54 L6.613,16.546 Z" id="base"  ></path>
                </g>
            </g>
        </g>
    </g>
</svg>