<?xml version="1.0" encoding="UTF-8"?>
<svg width="24px" height="24px" viewBox="0 0 24 24" version="1.1" xmlns="http://www.w3.org/2000/svg" xmlns:xlink="http://www.w3.org/1999/xlink">
    <title>Icons/MODE_IgniteAuto</title>
    <g id="Icons" stroke="none" stroke-width="1"   fill-rule="evenodd">
        <g transform="translate(-924.000000, -911.000000)" id="Icons-Modes">
            <g transform="translate(924.000000, 692.000000)">
                <g id="Icons/MODE_IgniteAuto" transform="translate(0.000000, 219.000000)">
                    <rect id="boundingBox"   opacity="0" x="0" y="0" width="24" height="24"></rect>
                    <path d="M15.9482105,7.99995789 C16.0501053,7.99995789 16.1324211,8.08248421 16.1324211,8.18416842 L16.1324211,8.18416842 L16.1324211,9.05953684 L23.5021053,9.05953684 C23.7058947,9.05953684 23.8705263,9.22437895 23.8705263,9.42816842 L23.8705263,9.42816842 L23.8705263,14.6795368 C23.8705263,14.8833263 23.7058947,15.0479579 23.5021053,15.0479579 L23.5021053,15.0479579 L16.1324211,15.0479579 L16.1324211,15.9233263 C16.1324211,16.0252211 16.0501053,16.1075368 15.9482105,16.1075368 L15.9482105,16.1075368 L14.1926316,16.1075368 C14.1581053,16.1075368 14.124,16.0978526 14.0947368,16.0793263 L14.0947368,16.0793263 L11.7477895,14.6052211 C11.6943158,14.5715368 11.6614737,14.5125895 11.6614737,14.4492211 L11.6614737,14.4492211 L11.6614737,13.7496421 L7.77052632,13.7496421 C7.56694737,13.7496421 7.40189474,13.5848 7.40189474,13.3810105 L7.40189474,13.3810105 L7.40189474,10.6098526 C7.40189474,10.4062737 7.56694737,10.2414316 7.77052632,10.2414316 L7.77052632,10.2414316 L11.6614737,10.2414316 L11.6614737,9.65827368 C11.6614737,9.59511579 11.6943158,9.53595789 11.7477895,9.50206316 L11.7477895,9.50206316 L14.0947368,8.02795789 C14.124,8.00964211 14.1581053,7.99995789 14.1926316,7.99995789 L14.1926316,7.99995789 Z M1.81793684,13.0486947 C1.81793684,13.0486947 2.49162105,13.5284842 2.97856842,13.7581684 C3.42656842,13.9697474 4.03225263,14.1004842 4.7352,14.0781684 C5.69288421,14.0472211 6.53604211,13.5297474 6.93498947,13.2406947 L6.93404211,13.2069579 L6.93604211,13.3276421 C6.83435789,13.4366947 6.71056842,13.5611158 6.5832,13.6682737 C6.30930526,13.8985895 6.00383158,14.0579579 6.00383158,14.0579579 C6.00383158,14.0579579 4.81035789,14.7478526 3.41941053,14.3080632 C2.02846316,13.8682737 1.81793684,13.0486947 1.81793684,13.0486947 Z M23.1336842,9.79658947 L16.1326316,9.79658947 L16.1326316,14.3109053 L23.1336842,14.3109053 L23.1336842,9.79658947 Z M22.5425053,10.3080211 L22.5422947,13.6711789 L16.6919789,13.6709684 L16.6919789,10.3080211 L22.5425053,10.3080211 Z M3.73183158,11.2297474 C4.35288421,11.5095368 5.34614737,12.1891158 6.24741053,12.1790105 C6.52909474,12.1760632 6.75014737,12.1406947 6.92067368,12.0935368 L6.92904211,12.7889579 L6.92783158,12.6611158 C6.82804211,12.7905895 6.7152,12.9177474 6.59183158,13.0286947 C6.08004211,13.4884842 5.19625263,13.5583789 5.19625263,13.5583789 C5.19625263,13.5583789 3.97941053,13.6981684 2.93835789,13.1985895 C1.89709474,12.6988 1.47035789,11.9493263 0.918147368,11.8394316 C0.365936842,11.7295368 4.21052632e-05,11.8293263 4.21052632e-05,11.8293263 L0.00864411696,11.8222756 L0.00864411696,11.8222756 L0.0736943158,11.7708808 C0.262568421,11.6250484 0.784,11.2476842 1.27646316,11.1198526 C1.89225263,10.9598526 3.11056842,10.9499579 3.73183158,11.2297474 Z M11.6614737,10.9784842 L8.13894737,10.9784842 L8.13894737,13.0125895 L11.6614737,13.0125895 L11.6614737,10.9784842 Z M4.56572632,9.84048421 C5.83435789,9.84048421 6.66130526,10.5501684 6.66130526,10.5501684 C6.66130526,10.5501684 6.77625263,10.6495368 6.90425263,10.7785895 L6.9152,11.6583789 C6.74341053,11.6811158 6.52930526,11.6960632 6.27477895,11.6893263 C5.5232,11.6695368 4.98362105,11.2297474 4.98362105,11.2297474 C4.98362105,11.2297474 4.69667368,10.9598526 3.74193684,10.7099579 C2.95014737,10.5028 1.82046316,10.5600632 1.82046316,10.5600632 C1.82046316,10.5600632 3.29709474,9.84048421 4.56572632,9.84048421 Z" id="base"  ></path>
                </g>
            </g>
        </g>
    </g>
</svg>