<?xml version="1.0" encoding="UTF-8"?>
<svg width="24px" height="24px" viewBox="0 0 24 24" version="1.1" xmlns="http://www.w3.org/2000/svg" xmlns:xlink="http://www.w3.org/1999/xlink">
    <title>Icons/MODE_IgniteTime</title>
    <g id="Icons" stroke="none" stroke-width="1"   fill-rule="evenodd">
        <g transform="translate(-924.000000, -877.000000)" id="Icons-Modes">
            <g transform="translate(924.000000, 692.000000)">
                <g id="Icons/MODE_IgniteLog" transform="translate(0.000000, 185.000000)">
                    <rect id="boundingBox"   opacity="0" x="0" y="0" width="24" height="24"></rect>
                    <path d="M19.75,15.5 C22.0972102,15.5 24,17.4027898 24,19.75 C24,22.0972102 22.0972102,24 19.75,24 C17.4027898,24 15.5,22.0972102 15.5,19.75 C15.5,17.4027898 17.4027898,15.5 19.75,15.5 Z M19.75,16.75 C18.0931458,16.75 16.75,18.0931458 16.75,19.75 C16.75,21.4068542 18.0931458,22.75 19.75,22.75 C21.4068542,22.75 22.75,21.4068542 22.75,19.75 C22.75,18.0931458 21.4068542,16.75 19.75,16.75 Z M8.823,2 C9.26,5.092 10.949,4.824 11.897,8.239 C12.2279645,7.50848662 12.3341339,6.69602966 12.202,5.905 C13.313,6.481 14.275,8.631 14.791,11.711 C15.279,11.488 15.51,10.617 15.691,9.642 C16.7192842,10.9623171 17.0896537,12.6693455 16.7175355,14.283837 C14.796711,15.3481258 13.5,17.3953142 13.5,19.75 C13.5,20.3784091 13.5923554,20.9849174 13.7642562,21.5567149 C12.3666895,22.0912761 10.817916,22.1444651 9.623,21.651 C11.521,20.569 13.484,20.148 13.97,16.695 C13.6594805,16.935075 13.3067278,17.1148432 12.93,17.225 C13.347,16.057 13.469,15.014 12.984,14.425 C12.7038521,15.3327945 12.0586175,16.0830926 11.203,16.496 C11.847,15.531 11.983,13.982 10.083,11.463 C10.444,14.469 10.083,15.86 9.22,16.892 C8.53541214,16.1820105 8.05219576,15.3025566 7.82,14.344 C7.23529091,15.7806785 7.25911089,17.3932189 7.886,18.812 C7.209,18.648 6.677,18.05 5.954,14.395 C5.49214562,15.3309363 5.26657302,16.3657549 5.297,17.409 C4.95944837,17.197829 4.60126686,17.0215863 4.228,16.883 C4.771,19.808 6.153,21.343 7.871,21.83 C3.774,22.706 2.234,19.422 2.034,17.092 C1.823,15.452 2.641,14.775 2.002,13.184 C2.50675613,13.4231347 2.93809014,13.7933429 3.251,14.256 C3.65352343,12.5661677 3.79216343,10.8242286 3.662,9.092 C4.473,9.274 5.021,10.531 5.355,11.131 C6.259,8.692 6.498,6.492 5.864,5.192 C6.678,5.272 7.155,6.122 7.697,7.097 C8.24,6.444 8.157,5.125 8.157,3.744 C8.15882182,3.10088747 8.39568775,2.48062593 8.823,2 Z M20,17.75 L20,19.75 L21.5,20.65 L21,21.5 L19,20.25 L19,17.75 L20,17.75 Z M9.464,6.739 C9.03339588,7.78239085 8.90215115,8.925155 9.085,10.039 C9.46873679,8.9857641 9.59858704,7.85685494 9.464,6.744 L9.464,6.744 Z" id="base"  ></path>
                </g>
            </g>
        </g>
    </g>
</svg>