<?xml version="1.0" encoding="UTF-8"?>
<svg width="24px" height="24px" viewBox="0 0 24 24" version="1.1" xmlns="http://www.w3.org/2000/svg" xmlns:xlink="http://www.w3.org/1999/xlink">
    <title>Icons/MODE_FireOff</title>
    <g id="Icons" stroke="none" stroke-width="1"   fill-rule="evenodd">
        <g transform="translate(-924.000000, -843.000000)" id="Icons-Modes">
            <g transform="translate(924.000000, 692.000000)">
                <g id="Icons/MODE_FireOff" transform="translate(0.000000, 151.000000)">
                    <rect id="boundingBox"   opacity="0" x="0" y="0" width="24" height="24"></rect>
                    <path d="M13.3912842,20.5616421 L11.6329684,20.3182737 L13.1994947,19.8993263 L14.9576,20.1426947 L13.3912842,20.5616421 Z M19.9752842,16.9744842 L20.3447579,17.9875368 L15.8474947,19.1906947 L17.6058105,19.4344842 L21.8270737,18.3050105 L22.1967579,19.3182737 L20.3445474,19.8136421 L22.0544421,20.0504842 L21.8565474,21.0982737 L17.6965474,20.5222737 L16.1300211,20.9410105 L20.0666526,21.4862737 L19.8687579,22.5340632 L13.4820211,21.6494316 L5.17823158,23.8706947 L4.80854737,22.8576421 L10.7430737,21.2700632 L8.98496842,21.0264842 L3.32623158,22.5401684 L2.95675789,21.5271158 L6.24623158,20.6471158 L1.50012632,19.9896421 L1.69802105,18.9420632 L8.89444211,19.9386947 L10.4607579,19.5197474 L3.48770526,18.5538526 L3.6856,17.5060632 L13.1087579,18.8115368 L19.9752842,16.9744842 Z M15.0024632,6.10808421 L15.4793053,7.67250526 C15.4012,7.73208421 15.3877263,7.75461053 15.3858316,7.75734737 C15.3774105,7.87797895 15.4132,8.04513684 15.4132,8.36092632 C15.4132,8.44176842 15.4155158,8.49861053 15.4184632,8.53713684 L15.4184632,8.53713684 L15.4673053,8.58261053 C15.6108842,8.73566316 15.6555158,9.02197895 15.6555158,9.21166316 C15.6555158,9.60787368 15.2374105,10.0765053 14.9934105,10.4019789 L14.9934105,10.4019789 L14.7532,10.7253474 L14.7616211,10.7794526 C14.7881474,11.0202947 14.6275158,11.3485053 14.6715158,11.5194526 L14.6715158,11.5194526 L14.7070947,11.5584 L14.8102526,11.6579789 C15.2704632,12.1276632 15.0237263,12.5097684 15.2510947,12.9314526 C15.5087789,13.4093474 16.3374105,14.2158737 15.8965684,14.7655579 L15.8965684,14.7655579 L15.8092,14.8670316 C15.5237263,15.1929263 14.8972,16.1337684 14.8416211,16.4927158 C15.0582526,16.7211368 15.2555158,16.9234526 15.4279368,17.1821895 L15.4279368,17.1821895 L14.6186737,17.5390316 C14.2178316,16.9373474 13.7489895,16.8941895 14.0144632,16.0729263 C14.1249895,15.7308211 14.8064632,14.7224 15.1033053,14.3821895 C14.7399368,13.5266105 14.3113053,13.4567158 14.2121474,12.4285053 C14.2016211,12.3181895 14.1759368,12.2120842 14.0906737,12.1249263 L14.0906737,12.1249263 L14.0003579,12.0381895 C13.5635158,11.6127158 13.8757263,11.2956632 13.8447789,10.8461895 C13.6372,10.3931368 14.7348842,9.58366316 14.7348842,9.21166316 C14.7348842,9.16197895 14.7235158,9.10892632 14.7104632,9.03882105 C14.4830947,8.8704 14.4925684,8.58787368 14.4925684,8.36092632 L14.492551,8.11308501 C14.4955027,7.50163556 14.5375649,6.46314386 15.0024632,6.10808421 L15.0024632,6.10808421 Z M9.6232,3.74431579 L9.75309474,4.18052632 C9.34698947,4.78557895 10.5404632,5.64073684 10.1682526,6.45336842 C9.94383158,6.94305263 9.48256842,7.12642105 9.18741053,7.23442105 L9.18741053,7.23442105 L9.07330526,7.27631579 C9.64151579,7.526 11.5939368,8.73336842 10.0549895,9.16663158 L10.0549895,9.16663158 L9.83372632,9.22452632 C9.8072,9.23189474 9.79098947,9.23231579 9.77983158,9.23105263 C9.80972632,9.34705263 9.83583158,9.40157895 9.84298947,9.41778947 C10.3413053,10.0068421 10.5337263,10.91 9.87856842,11.4449474 C9.92467368,11.5331579 9.99330526,11.5902105 10.0916211,11.6375789 C10.6747789,11.9011579 11.2303579,12.4567368 10.9589895,13.0356842 C10.7604632,13.4590526 10.2819368,13.3927368 10.0354105,13.6615789 L10.0354105,13.6615789 C11.1615158,14.2838947 10.7674105,14.8116842 10.2825684,15.5392632 C10.1705684,15.7072632 10.0210947,15.8531579 9.84151579,15.9754737 L9.84151579,15.9754737 L9.72425263,16.0525263 C9.60467368,16.13 9.57646316,16.1377895 9.5472,16.2177895 C9.56993684,16.3348421 9.85035789,16.5321053 9.96193684,16.6034737 L9.96193684,16.6034737 L10.0638316,16.6649474 L9.5512,17.2870526 C9.5512,17.2870526 9.48677895,17.2523158 9.39330526,17.1923158 C8.64783158,16.7158947 8.23625263,16.0592632 9.15077895,15.4668421 L9.15077895,15.4668421 L9.25014737,15.4015789 L9.32972632,15.3424211 C9.51835789,15.1866316 9.99498947,14.6022105 9.7232,14.4169474 C9.60341053,14.3350526 9.50193684,14.282 9.4232,14.2424211 L9.4232,14.2424211 L9.29035789,14.1737895 C8.90130526,13.9596842 8.91541053,13.6657895 9.15498947,13.3754737 L9.15498947,13.3754737 L9.29751579,13.2137895 C9.54993684,12.9384211 9.77056842,12.8872632 10.1078316,12.7384211 C10.1019368,12.5771579 9.95098947,12.4304211 9.78698947,12.3567368 L9.78698947,12.3567368 L9.62383158,12.2824211 C9.06467368,12.014 8.65962105,11.3866316 9.19835789,10.9464211 L9.19835789,10.9464211 L9.31372632,10.8565263 C9.51667368,10.6904211 9.23688421,10.1285263 9.14488421,9.94242105 L9.14488421,9.94242105 L9.1032,9.86684211 C8.66256842,9.34621053 8.75204211,8.73021053 9.54046316,8.51463158 L9.54046316,8.51463158 L9.48467368,8.474 C8.99604211,8.08284211 8.69646316,7.95778947 8.52698947,7.88957895 L8.52698947,7.88957895 L8.37667368,7.82726316 C7.70614737,7.522 8.01056842,6.86094737 8.60256842,6.62789474 L8.60256842,6.62789474 L8.81056842,6.55105263 C9.0752,6.45442105 9.28151579,6.34726316 9.3392,6.10073684 L9.3392,6.10073684 L9.19183158,5.89589474 C8.89604211,5.48726316 9.24972632,4.13357895 9.6232,3.74431579 L9.6232,3.74431579 Z M14.1969474,4.21052632e-05 C14.1969474,4.21052632e-05 14.2870526,1.08825263 14.2342105,1.33035789 C13.8889474,2.91351579 13.3472632,2.57183158 12.5304211,3.24025263 L12.5304211,3.24025263 L12.4763158,3.28972632 C12.9129474,3.83035789 12.7883158,3.86404211 12.9971579,4.38341053 C13.0855789,4.60341053 13.2281053,4.64509474 13.2281053,4.93793684 C13.2281053,5.51141053 12.5883158,5.78783158 12.1146316,6.12130526 C12.4704211,6.40341053 12.4249474,6.75077895 12.7314737,6.90046316 L12.7314737,6.90046316 L12.8788421,6.97477895 C13.4158947,7.26993684 13.7373684,7.91983158 13.3217895,8.37309474 L13.3217895,8.37309474 L13.2430526,8.46256842 C12.8192632,8.99225263 12.9241053,9.57098947 13.3272632,10.0682526 C13.7586316,10.6004632 13.7081053,11.0726737 13.1982105,11.5379368 L13.1982105,11.5379368 L13.0011579,11.7120421 C12.8615789,11.8341474 12.6897895,11.9836211 12.4838947,12.1804632 L12.4838947,12.1804632 L12.2982105,12.3606737 C12.4657895,12.4775158 13.3390526,13.4876211 13.3763158,13.7240421 C13.5992632,15.1347789 12.0161053,14.9413053 12.4392632,15.9305684 C12.5001053,16.0724632 12.5733684,16.2402526 12.6466316,16.4505684 L12.6466316,16.4505684 L11.7611579,16.6552 C11.3396842,15.4476211 11.0491579,15.3535158 12.3613684,14.3307789 C12.4506316,14.2610947 12.4777895,13.9107789 12.4632632,13.8194105 C12.1946316,13.5263579 11.95,13.0554105 11.5864211,12.8621474 C11.0655789,12.5855158 11.1982105,12.2752 11.5211579,11.9490947 L11.5211579,11.9490947 L11.7830526,11.6947789 C12.702,10.8175158 12.9641053,11.1002526 12.3074737,10.1726737 C11.8510526,9.52804211 12.054,8.50404211 12.5838947,7.92551579 C12.5569474,7.79204211 12.4914737,7.66593684 12.3636842,7.59562105 L12.3636842,7.59562105 L12.258,7.54256842 C11.5687368,7.20614737 11.7815789,6.83835789 11.4268421,6.63141053 L11.4268421,6.63141053 L11.2998947,6.55814737 C10.2967368,5.93772632 12.074,5.37709474 12.2975789,4.99625263 C12.3009474,4.98298947 12.3076842,4.95393684 12.3076842,4.93793684 C12.13,4.59604211 12.0771579,4.63498947 12.0276842,4.20341053 C11.9567368,3.58383158 10.5767368,3.24972632 12.6857895,2.24909474 C13.1112632,2.0472 13.6438947,1.55625263 13.6504211,1.17014737 L13.6504211,1.17014737 Z" id="base"  ></path>
                </g>
            </g>
        </g>
    </g>
</svg>