<?xml version="1.0" encoding="UTF-8"?>
<svg viewBox="0 0 390 230" version="1.1" xmlns="http://www.w3.org/2000/svg" xmlns:xlink="http://www.w3.org/1999/xlink">
    <title>Content/Comp_Vis_Boiler</title>
    <g id="Content/Comp_Vis_Boiler" stroke="none" stroke-width="1" fill="none" fill-rule="evenodd">
        <rect id="boundingBox" fill="#000000" opacity="0" x="0" y="0" width="390" height="230"></rect>
        <g id="SVG" transform="translate(37.700000, 1.000000)" fill-rule="nonzero">
            <path d="M85,176 L85,173.6 C85,173.4 84.8,173.2 84.6,173.2 L83.5,173.2 C83.3,173.2 83.1,173.4 83.1,173.6 L83.1,184.1 C83.1,184.3 83.3,184.5 83.5,184.5 L84.6,184.5 C84.8,184.5 85,184.3 85,184.1 L85,182 L150.1,182 L150.1,176 L85,176 Z M118.7,181.1 L113.9,178.9 L118.7,176.7 L118.7,181.1 Z" id="return-line-02" fill="#6E8CA0"></path>
            <path d="M46.7,173.2 L45.6,173.2 C45.4,173.2 45.2,173.4 45.2,173.6 L45.2,175.8 L0,175.8 L0,181.8 L45.2,181.8 L45.2,184.2 C45.2,184.4 45.4,184.6 45.6,184.6 L46.7,184.6 C46.9,184.6 47.1,184.4 47.1,184.2 L47.1,173.7 C47.1,173.4 46.9,173.2 46.7,173.2 Z M22.2,181.1 L17.4,178.9 L22.2,176.7 L22.2,181.1 Z" id="return-line-01" fill="#6E8CA0"></path>
            <path d="M0,79.2 L0,85.2 L148.6,85.2 L148.6,79.2 L0,79.2 Z M18,84.2 L18,79.8 L22.8,82 L18,84.2 Z M114.5,84.2 L114.5,79.8 L119.3,82 L114.5,84.2 Z" id="supply-line" fill="#C86464"></path>
            <path d="M315.8,215.1 L286.8,215.1 L283.3,209.5 C269.1,213.2 251.2,215.2 232.8,215.2 L229.6,215.2 C211.1,215.2 193.3,213.2 179.1,209.5 L175.6,215.1 L146.6,215.1 L156.3,200 C151.3,196.4 148.7,192.5 148.7,188.2 L148.7,26.9 C148.7,9.4 190.4,0 229.6,0 L232.8,0 C272,0 313.7,9.4 313.7,26.9 L313.7,178.5 L308.6,178.5 L308.6,26.9 C308.6,16.6 277.5,5.1 232.8,5.1 L229.6,5.1 C184.9,5.1 153.8,16.6 153.8,26.9 L153.8,188.2 C153.8,191.9 157.8,195.1 161.1,197.1 L163.3,198.5 L155.9,210.1 L172.7,210.1 L176.7,203.7 L178.5,204.2 C192.6,208 210.7,210.2 229.5,210.2 L232.7,210.2 C251.5,210.2 269.7,208.1 283.7,204.2 L285.5,203.7 L289.5,210.1 L306.3,210.1 L298.9,198.5 L301.1,197.1 C304.4,195.1 308.4,191.9 308.4,188.2 L308.4,178.5 L313.5,178.5 L313.5,188.2 C313.5,192.5 311,196.4 305.9,200 L315.8,215.1 Z" id="dhw-tank" fill="#787878"></path>
            <path d="M305,55.4 L305,26.9 C305,24.7 300,19.8 286.4,15.5 C272.2,11.1 253.1,8.6 232.8,8.6 L229.6,8.6 C209.3,8.6 190.2,11 176,15.5 C162.3,19.8 157.4,24.6 157.4,26.9 L157.4,55.4 L305,55.4 Z" id="obj_loading-bar-01" fill="#C86464"></path>
            <rect id="obj_loading-bar-02" fill="#6E8CA0" x="157.3" y="59" width="147.7" height="46.8"></rect>
            <rect id="obj_loading-bar-03" fill="#6E8CA0" x="157.3" y="109.3" width="147.7" height="46.8"></rect>
            <path d="M157.3,159.7 L157.3,188.2 C157.3,190.4 162.3,195.3 175.9,199.6 C190.1,204 209.2,206.5 229.5,206.5 L232.7,206.5 C253,206.5 272.1,204.1 286.3,199.6 C300,195.3 304.9,190.5 304.9,188.2 L304.9,159.7 L157.3,159.7 Z" id="obj_loading-bar-04" fill="#6E8CA0"></path>
            <g id="obj_pump-01" transform="translate(47.300000, 165.000000)" fill="#00DF51">
                <path d="M21.3,13.7 C21.3,11.9 19.8,10.4 18,10.4 C16.2,10.4 14.7,11.9 14.7,13.7 C14.7,15.5 16.2,17 18,17 C19.8,17 21.3,15.5 21.3,13.7 Z" id="Path"></path>
                <path d="M2.7,19.1 L2.7,16.8 L7.9,16.8 C7.6,15.8 7.4,14.7 7.4,13.6 C7.4,12.5 7.6,11.5 7.8,10.6 L2.6,10.6 L2.6,8.5 C2.6,8.3 2.4,8.1 2.2,8.1 L1.1,8.1 C0.9,8.1 0.7,8.3 0.7,8.5 L0.7,19 C0.7,19.2 0.9,19.4 1.1,19.4 L2.2,19.4 C2.5,19.5 2.7,19.4 2.7,19.1 Z" id="Path"></path>
                <path d="M9,19.3 C9.1,20 9.3,20.8 9.5,21.5 C9.6,22 9.8,22.3 10.5,22.5 C11.3,22.7 12.1,22.9 12.8,23 C11.2,22.1 9.9,20.8 9,19.3 Z" id="Path"></path>
                <path d="M23.3,23 C24.1,22.9 24.8,22.7 25.6,22.5 C26.2,22.3 26.4,22.1 26.6,21.5 C26.8,20.7 27,20 27.1,19.2 C26.1,20.8 24.8,22.1 23.3,23 Z" id="Path"></path>
                <path d="M32.9,8.6 L32.9,10.7 L28.2,10.7 C28.5,11.7 28.6,12.7 28.6,13.7 C28.6,14.8 28.4,15.9 28.1,16.9 L32.9,16.9 L32.9,19.2 C32.9,19.4 33.1,19.6 33.3,19.6 L34.4,19.6 C34.6,19.6 34.8,19.4 34.8,19.2 L34.8,8.7 C34.8,8.5 34.6,8.3 34.4,8.3 L33.3,8.3 C33,8.2 32.9,8.4 32.9,8.6 Z" id="Path"></path>
                <path d="M18,3 C21.7,3 25,5 26.9,7.9 C26.8,7.4 26.7,6.9 26.6,6.4 C26.6,5.9 26.2,5.6 25.7,5.4 L25.7,0.6 C25.7,0.4 25.5,0.2 25.3,0.2 L10.7,0.2 C10.7,0.2 10.5,0.2 10.4,0.3 C10.3,0.4 10.3,0.5 10.3,0.5 L10.3,5.3 C9.8,5.5 9.6,5.7 9.5,6.2 C9.4,6.7 9.3,7.2 9.2,7.7 C11,4.9 14.3,3 18,3 Z" id="Path"></path>
                <path d="M27.6,13.7 C27.6,8.3 23.3,4 18,4 C12.7,4 8.4,8.3 8.4,13.7 C8.4,19.1 12.7,23.4 18,23.4 C23.3,23.4 27.6,19.1 27.6,13.7 Z M10.8,13.7 C10.8,9.7 14,6.5 18,6.5 C22,6.5 25.2,9.7 25.2,13.7 C25.2,17.7 22,20.9 18,20.9 C14,20.9 10.8,17.7 10.8,13.7 Z" id="Shape"></path>
            </g>
            <path d="M257.9,176.8 L212.3,156.2 L257.1,149.5 C258.4,149.3 259.4,148.3 259.5,147 C259.6,145.7 258.8,144.6 257.5,144.2 L212.2,130.6 L257.5,117 C258.8,116.6 259.6,115.5 259.5,114.2 C259.4,112.9 258.4,111.9 257.1,111.7 L212.3,105 L257.9,84.4 C259.1,83.8 259.8,82.6 259.5,81.3 C259.2,80.1 258,79.2 256.7,79.2 L205.1,79.2 L202.9,79.2 L153.9,79.2 L153.9,84.6 L202.9,84.6 L205.1,84.6 L244,84.6 L201.6,103.8 C200.5,104.3 199.8,105.5 200,106.6 C200.2,107.8 201.2,108.7 202.4,108.9 L244.3,115.2 L201.8,128 C200.6,128.4 199.8,129.4 199.8,130.6 C199.8,131.8 200.6,132.8 201.8,133.2 L244.2,146 L202.3,152.3 C201,152.5 200.1,153.4 199.9,154.6 C199.7,155.8 200.4,156.9 201.5,157.4 L243.9,176.6 L203.7,176.6 L202.7,176.6 L153.7,176.6 L153.7,182 L202.7,182 L203.7,182 L256.5,182 C257.9,182 259,181.1 259.3,179.9 C259.7,178.6 259.1,177.3 257.9,176.8 Z" id="heater-coil" fill="#000000" opacity="0.5"></path>
        </g>
    </g>
</svg>