<?xml version="1.0" encoding="UTF-8"?>
<svg viewBox="0 0 390 230" version="1.1" xmlns="http://www.w3.org/2000/svg" xmlns:xlink="http://www.w3.org/1999/xlink">
    <title>Content/Comp_Vis_KesselPellets</title>
    <defs>
        <polygon id="path-1" points="0 0 12 0 12 4 21 4 21 0 33 0 33 4 47 4 47 0 58 0 59 58 38 87 21 87 0 60"></polygon>
    </defs>
    <g id="Content/Comp_Vis_KesselPellets" stroke="none" stroke-width="1" fill="none" fill-rule="evenodd">
        <rect id="boundingBox" fill="#000000" opacity="0" x="0" y="0" width="390" height="230"></rect>
        <g id="SVG" transform="translate(28.000000, -1.000000)">
            <path d="M237.7,153 L236.6,153 C236.4,153 236.2,153.2 236.2,153.4 L236.2,155.6 L171,155.6 L171,161.6 L236.2,161.6 L236.2,164 C236.2,164.2 236.4,164.4 236.6,164.4 L237.7,164.4 C237.9,164.4 238.1,164.2 238.1,164 L238.1,153.5 C238.1,153.2 237.9,153 237.7,153 Z M206.8,160.8 L202,158.6 L206.8,156.4 L206.8,160.8 Z" id="boiler-return-02" fill="#6E8CA0" fill-rule="nonzero"></path>
            <path d="M276,155.8 L276,153.4 C276,153.2 275.8,153 275.6,153 L274.5,153 C274.3,153 274.1,153.2 274.1,153.4 L274.1,164 C274.1,164.2 274.3,164.4 274.5,164.4 L275.6,164.4 C275.8,164.4 276,164.2 276,164 L276,161.8 L341.1,161.8 L341.1,155.8 L276,155.8 Z M309,160.8 L304.2,158.6 L309,156.4 L309,160.8 Z" id="boiler-return-01" fill="#6E8CA0" fill-rule="nonzero"></path>
            <path d="M171.1,94.9 L171.1,100.9 L341.2,100.9 L341.2,94.9 L171.1,94.9 Z M202,100.1 L202,95.7 L206.8,97.9 L202,100.1 Z M304.2,100.1 L304.2,95.7 L309,97.9 L304.2,100.1 Z" id="boiler-flow" fill="#C86464" fill-rule="nonzero"></path>
            <g id="boiler">
                <path d="M205.4,0 L205.4,51.9 L171.8,51.9 L171.8,43.3 C171.8,42.2 170.8,41.2 169.7,41.2 L78.5,41.2 C77.4,41.2 76.4,42.2 76.4,43.3 L76.4,142.3 L41,142.3 L61.3,116.2 L61.4,116 C62.7,113.7 63.4,111.1 63.4,108.5 L63.4,56.3 C63.4,48 56.6,41.2 48.3,41.2 L15.1,41.2 C6.8,41.2 0,48 0,56.3 L0,108.5 C0,111.1 0.7,113.7 2,116 L22.4,142.3 L22.4,142.3 L22.4,154.7 L76.3,154.7 L76.3,172.8 C76.3,173 76.3,173.1 76.4,173.3 C76.4,173.5 76.3,173.6 76.3,173.8 L76.3,228.1 C76.3,229.2 77.3,230.2 78.4,230.2 L169.6,230.2 C170.7,230.2 171.7,229.2 171.7,228.1 L171.7,173.8 C171.7,173.6 171.7,173.5 171.6,173.3 C171.6,173.1 171.7,173 171.7,172.8 L171.7,64.5 L212.7,64.5 C215.6,64.5 217.9,62.2 217.9,59.3 L217.9,0 L205.4,0 Z M5.1,114.2 C4.1,112.5 3.6,110.5 3.6,108.5 L3.6,56.3 C3.6,49.9 8.8,44.8 15.1,44.8 L48.3,44.8 C54.7,44.8 59.8,50 59.8,56.3 L59.8,108.5 C59.8,110.5 59.3,112.4 58.3,114.2 L39.2,138.8 L24.2,138.8 L5.1,114.2 Z M168.5,226.9 L79.6,226.9 L79.6,174.9 L168.5,174.9 L168.5,226.9 Z M168.5,171.6 L79.6,171.6 L79.6,44.5 L168.5,44.5 L168.5,171.6 Z" id="Shape" fill="#646464" fill-rule="nonzero"></path>
                <path d="M105,157.3 L143.6,157.3 C146.6,157.3 149.1,154.8 149.1,151.8 L149.1,113.2 C149.1,110.2 146.6,107.7 143.6,107.7 L105,107.7 C102,107.7 99.5,110.2 99.5,113.2 L99.5,151.8 C99.5,154.8 101.9,157.3 105,157.3 Z M100.5,113.2 C100.5,110.7 102.5,108.7 105,108.7 L143.6,108.7 C146.1,108.7 148.1,110.7 148.1,113.2 L148.1,151.8 C148.1,154.3 146.1,156.3 143.6,156.3 L105,156.3 C102.5,156.3 100.5,154.3 100.5,151.8 L100.5,113.2 Z" id="Shape" fill="#646464" fill-rule="nonzero"></path>
                <path d="M108.5,222.6 L139.7,222.6 L139.7,190 L144.5,190 L144.5,185.3 L126.9,185.3 L126.9,178.9 L121.2,178.9 L121.2,185.3 L103.6,185.3 L103.6,190 L108.4,190 L108.4,222.6 L108.5,222.6 Z M111.4,190.7 L136.3,190.7 L136.3,219.9 L111.4,219.9 L111.4,190.7 Z" id="Shape" fill="#646464" fill-rule="nonzero"></path>
                <path d="M129.1,196.9 C125.2,194.1 122.2,194.1 118,196.9 C116.6,197.9 116.4,197.9 113.3,196.9 L113.3,218.3 L134.5,218.3 L134.5,196.9 C131.6,198.6 130.3,198.6 129.1,196.9 Z" id="Path" fill="#646464" fill-rule="nonzero"></path>
                <g id="pellet" transform="translate(2.000000, 54.000000)">
                    <mask id="mask-2" fill="white">
                        <use xlink:href="#path-1"></use>
                    </mask>
                    <g id="Path-2"></g>
                    <g id="Group" mask="url(#mask-2)" fill="#646464" fill-rule="nonzero">
                        <g transform="translate(1.000000, 1.000000)" id="Oval">
                            <circle cx="1.6" cy="21.8" r="1"></circle>
                            <circle cx="1.6" cy="25.2" r="1"></circle>
                            <circle cx="1.6" cy="28.6" r="1"></circle>
                            <circle cx="1.6" cy="32" r="1"></circle>
                            <circle cx="1.6" cy="35.4" r="1"></circle>
                            <circle cx="1.6" cy="38.9" r="1"></circle>
                            <circle cx="1.6" cy="42.3" r="1"></circle>
                            <circle cx="1.6" cy="45.7" r="1"></circle>
                            <circle cx="1.6" cy="49.1" r="1"></circle>
                            <circle cx="1.6" cy="52.6" r="1"></circle>
                            <circle cx="1.6" cy="56" r="1"></circle>
                            <circle cx="1.6" cy="59.4" r="1"></circle>
                            <circle cx="1.6" cy="62.8" r="1"></circle>
                            <circle cx="1.6" cy="66.2" r="1"></circle>
                            <circle cx="1.6" cy="69.7" r="1"></circle>
                            <circle cx="1.6" cy="73.1" r="1"></circle>
                            <circle cx="4.4" cy="21.8" r="1"></circle>
                            <circle cx="4.4" cy="25.2" r="1"></circle>
                            <circle cx="4.4" cy="28.6" r="1"></circle>
                            <circle cx="4.4" cy="32" r="1"></circle>
                            <circle cx="4.4" cy="35.4" r="1"></circle>
                            <circle cx="4.4" cy="38.9" r="1"></circle>
                            <circle cx="4.4" cy="42.3" r="1"></circle>
                            <circle cx="4.4" cy="45.7" r="1"></circle>
                            <circle cx="4.4" cy="49.1" r="1"></circle>
                            <circle cx="4.4" cy="52.6" r="1"></circle>
                            <circle cx="4.4" cy="56" r="1"></circle>
                            <circle cx="4.4" cy="59.4" r="1"></circle>
                            <circle cx="4.4" cy="62.8" r="1"></circle>
                            <circle cx="4.4" cy="66.2" r="1"></circle>
                            <circle cx="4.4" cy="69.7" r="1"></circle>
                            <circle cx="4.4" cy="73.1" r="1"></circle>
                            <circle cx="7.3" cy="21.8" r="1"></circle>
                            <circle cx="7.3" cy="25.2" r="1"></circle>
                            <circle cx="7.3" cy="28.6" r="1"></circle>
                            <circle cx="7.3" cy="32" r="1"></circle>
                            <circle cx="7.3" cy="35.4" r="1"></circle>
                            <circle cx="7.3" cy="38.9" r="1"></circle>
                            <circle cx="7.3" cy="42.3" r="1"></circle>
                            <circle cx="7.3" cy="45.7" r="1"></circle>
                            <circle cx="7.3" cy="49.1" r="1"></circle>
                            <circle cx="7.3" cy="52.6" r="1"></circle>
                            <circle cx="7.3" cy="56" r="1"></circle>
                            <circle cx="7.3" cy="59.4" r="1"></circle>
                            <circle cx="7.3" cy="62.8" r="1"></circle>
                            <circle cx="7.3" cy="66.2" r="1"></circle>
                            <circle cx="7.3" cy="69.7" r="1"></circle>
                            <circle cx="7.3" cy="73.1" r="1"></circle>
                            <circle cx="10.1" cy="21.8" r="1"></circle>
                            <circle cx="10.1" cy="25.2" r="1"></circle>
                            <circle cx="10.1" cy="28.6" r="1"></circle>
                            <circle cx="10.1" cy="32" r="1"></circle>
                            <circle cx="10.1" cy="35.4" r="1"></circle>
                            <circle cx="10.1" cy="38.9" r="1"></circle>
                            <circle cx="10.1" cy="42.3" r="1"></circle>
                            <circle cx="10.1" cy="45.7" r="1"></circle>
                            <circle cx="10.1" cy="49.1" r="1"></circle>
                            <circle cx="10.1" cy="52.6" r="1"></circle>
                            <circle cx="10.1" cy="56" r="1"></circle>
                            <circle cx="10.1" cy="59.4" r="1"></circle>
                            <circle cx="10.1" cy="62.8" r="1"></circle>
                            <circle cx="10.1" cy="66.2" r="1"></circle>
                            <circle cx="10.1" cy="69.7" r="1"></circle>
                            <circle cx="10.1" cy="73.1" r="1"></circle>
                            <circle cx="13" cy="21.8" r="1"></circle>
                            <circle cx="13" cy="25.2" r="1"></circle>
                            <circle cx="13" cy="28.6" r="1"></circle>
                            <circle cx="13" cy="32" r="1"></circle>
                            <circle cx="13" cy="35.4" r="1"></circle>
                            <circle cx="13" cy="38.9" r="1"></circle>
                            <circle cx="13" cy="42.3" r="1"></circle>
                            <circle cx="13" cy="45.7" r="1"></circle>
                            <circle cx="13" cy="49.1" r="1"></circle>
                            <circle cx="13" cy="52.6" r="1"></circle>
                            <circle cx="13" cy="56" r="1"></circle>
                            <circle cx="13" cy="59.4" r="1"></circle>
                            <circle cx="13" cy="62.8" r="1"></circle>
                            <circle cx="13" cy="66.2" r="1"></circle>
                            <circle cx="13" cy="69.7" r="1"></circle>
                            <circle cx="13" cy="73.1" r="1"></circle>
                            <circle cx="15.8" cy="21.8" r="1"></circle>
                            <circle cx="15.8" cy="25.2" r="1"></circle>
                            <circle cx="15.8" cy="28.6" r="1"></circle>
                            <circle cx="15.8" cy="32" r="1"></circle>
                            <circle cx="15.8" cy="35.4" r="1"></circle>
                            <circle cx="15.8" cy="38.9" r="1"></circle>
                            <circle cx="15.8" cy="42.3" r="1"></circle>
                            <circle cx="15.8" cy="45.7" r="1"></circle>
                            <circle cx="15.8" cy="49.1" r="1"></circle>
                            <circle cx="15.8" cy="52.6" r="1"></circle>
                            <circle cx="15.8" cy="56" r="1"></circle>
                            <circle cx="15.8" cy="59.4" r="1"></circle>
                            <circle cx="15.8" cy="62.8" r="1"></circle>
                            <circle cx="15.8" cy="66.2" r="1"></circle>
                            <circle cx="15.8" cy="69.7" r="1"></circle>
                            <circle cx="15.8" cy="73.1" r="1"></circle>
                            <circle cx="18.7" cy="21.8" r="1"></circle>
                            <circle cx="18.7" cy="25.2" r="1"></circle>
                            <circle cx="18.7" cy="28.6" r="1"></circle>
                            <circle cx="18.7" cy="32" r="1"></circle>
                            <circle cx="18.7" cy="35.4" r="1"></circle>
                            <circle cx="18.7" cy="38.9" r="1"></circle>
                            <circle cx="18.7" cy="42.3" r="1"></circle>
                            <circle cx="18.7" cy="45.7" r="1"></circle>
                            <circle cx="18.7" cy="49.1" r="1"></circle>
                            <circle cx="18.7" cy="52.6" r="1"></circle>
                            <circle cx="18.7" cy="56" r="1"></circle>
                            <circle cx="18.7" cy="59.4" r="1"></circle>
                            <circle cx="18.7" cy="62.8" r="1"></circle>
                            <circle cx="18.7" cy="66.2" r="1"></circle>
                            <circle cx="18.7" cy="69.7" r="1"></circle>
                            <circle cx="18.7" cy="73.1" r="1"></circle>
                            <circle cx="21.5" cy="21.8" r="1"></circle>
                            <circle cx="21.5" cy="25.2" r="1"></circle>
                            <circle cx="21.5" cy="28.6" r="1"></circle>
                            <circle cx="21.5" cy="32" r="1"></circle>
                            <circle cx="21.5" cy="35.4" r="1"></circle>
                            <circle cx="21.5" cy="38.9" r="1"></circle>
                            <circle cx="21.5" cy="42.3" r="1"></circle>
                            <circle cx="21.5" cy="45.7" r="1"></circle>
                            <circle cx="21.5" cy="49.1" r="1"></circle>
                            <circle cx="21.5" cy="52.6" r="1"></circle>
                            <circle cx="21.5" cy="56" r="1"></circle>
                            <circle cx="21.5" cy="59.4" r="1"></circle>
                            <circle cx="21.5" cy="62.8" r="1"></circle>
                            <circle cx="21.5" cy="66.2" r="1"></circle>
                            <circle cx="21.5" cy="69.7" r="1"></circle>
                            <circle cx="21.5" cy="73.1" r="1"></circle>
                            <circle cx="24.4" cy="21.8" r="1"></circle>
                            <circle cx="24.4" cy="25.2" r="1"></circle>
                            <circle cx="24.4" cy="28.6" r="1"></circle>
                            <circle cx="24.4" cy="32" r="1"></circle>
                            <circle cx="24.4" cy="35.4" r="1"></circle>
                            <circle cx="24.4" cy="38.9" r="1"></circle>
                            <circle cx="24.4" cy="42.3" r="1"></circle>
                            <circle cx="24.4" cy="45.7" r="1"></circle>
                            <circle cx="24.4" cy="49.1" r="1"></circle>
                            <circle cx="24.4" cy="52.6" r="1"></circle>
                            <circle cx="24.4" cy="56" r="1"></circle>
                            <circle cx="24.4" cy="59.4" r="1"></circle>
                            <circle cx="24.4" cy="62.8" r="1"></circle>
                            <circle cx="24.4" cy="66.2" r="1"></circle>
                            <circle cx="24.4" cy="69.7" r="1"></circle>
                            <circle cx="24.4" cy="73.1" r="1"></circle>
                            <circle cx="27.2" cy="21.8" r="1"></circle>
                            <circle cx="27.2" cy="25.2" r="1"></circle>
                            <circle cx="27.2" cy="28.6" r="1"></circle>
                            <circle cx="27.2" cy="32" r="1"></circle>
                            <circle cx="27.2" cy="35.4" r="1"></circle>
                            <circle cx="27.2" cy="38.9" r="1"></circle>
                            <circle cx="27.2" cy="42.3" r="1"></circle>
                            <circle cx="27.2" cy="45.7" r="1"></circle>
                            <circle cx="27.2" cy="49.1" r="1"></circle>
                            <circle cx="27.2" cy="52.6" r="1"></circle>
                            <circle cx="27.2" cy="56" r="1"></circle>
                            <circle cx="27.2" cy="59.4" r="1"></circle>
                            <circle cx="27.2" cy="62.8" r="1"></circle>
                            <circle cx="27.2" cy="66.2" r="1"></circle>
                            <circle cx="27.2" cy="69.7" r="1"></circle>
                            <circle cx="27.2" cy="73.1" r="1"></circle>
                            <circle cx="30" cy="21.8" r="1"></circle>
                            <circle cx="30" cy="25.2" r="1"></circle>
                            <circle cx="30" cy="28.6" r="1"></circle>
                            <circle cx="30" cy="32" r="1"></circle>
                            <circle cx="30" cy="35.4" r="1"></circle>
                            <circle cx="30" cy="38.9" r="1"></circle>
                            <circle cx="30" cy="42.3" r="1"></circle>
                            <circle cx="30" cy="45.7" r="1"></circle>
                            <circle cx="30" cy="49.1" r="1"></circle>
                            <circle cx="30" cy="52.6" r="1"></circle>
                            <circle cx="30" cy="56" r="1"></circle>
                            <circle cx="30" cy="59.4" r="1"></circle>
                            <circle cx="30" cy="62.8" r="1"></circle>
                            <circle cx="30" cy="66.2" r="1"></circle>
                            <circle cx="30" cy="69.7" r="1"></circle>
                            <circle cx="30" cy="73.1" r="1"></circle>
                            <circle cx="32.9" cy="21.8" r="1"></circle>
                            <circle cx="32.9" cy="25.2" r="1"></circle>
                            <circle cx="32.9" cy="28.6" r="1"></circle>
                            <circle cx="32.9" cy="32" r="1"></circle>
                            <circle cx="32.9" cy="35.4" r="1"></circle>
                            <circle cx="32.9" cy="38.9" r="1"></circle>
                            <circle cx="32.9" cy="42.3" r="1"></circle>
                            <circle cx="32.9" cy="45.7" r="1"></circle>
                            <circle cx="32.9" cy="49.1" r="1"></circle>
                            <circle cx="32.9" cy="52.6" r="1"></circle>
                            <circle cx="32.9" cy="56" r="1"></circle>
                            <circle cx="32.9" cy="59.4" r="1"></circle>
                            <circle cx="32.9" cy="62.8" r="1"></circle>
                            <circle cx="32.9" cy="66.2" r="1"></circle>
                            <circle cx="32.9" cy="69.7" r="1"></circle>
                            <circle cx="32.9" cy="73.1" r="1"></circle>
                            <circle cx="35.7" cy="21.8" r="1"></circle>
                            <circle cx="35.7" cy="25.2" r="1"></circle>
                            <circle cx="35.7" cy="28.6" r="1"></circle>
                            <circle cx="35.7" cy="32" r="1"></circle>
                            <circle cx="35.7" cy="35.4" r="1"></circle>
                            <circle cx="35.7" cy="38.9" r="1"></circle>
                            <circle cx="35.7" cy="42.3" r="1"></circle>
                            <circle cx="35.7" cy="45.7" r="1"></circle>
                            <circle cx="35.7" cy="49.1" r="1"></circle>
                            <circle cx="35.7" cy="52.6" r="1"></circle>
                            <circle cx="35.7" cy="56" r="1"></circle>
                            <circle cx="35.7" cy="59.4" r="1"></circle>
                            <circle cx="35.7" cy="62.8" r="1"></circle>
                            <circle cx="35.7" cy="66.2" r="1"></circle>
                            <circle cx="35.7" cy="69.7" r="1"></circle>
                            <circle cx="35.7" cy="73.1" r="1"></circle>
                            <circle cx="38.6" cy="21.8" r="1"></circle>
                            <circle cx="38.6" cy="25.2" r="1"></circle>
                            <circle cx="38.6" cy="28.6" r="1"></circle>
                            <circle cx="38.6" cy="32" r="1"></circle>
                            <circle cx="38.6" cy="35.4" r="1"></circle>
                            <circle cx="38.6" cy="38.9" r="1"></circle>
                            <circle cx="38.6" cy="42.3" r="1"></circle>
                            <circle cx="38.6" cy="45.7" r="1"></circle>
                            <circle cx="38.6" cy="49.1" r="1"></circle>
                            <circle cx="38.6" cy="52.6" r="1"></circle>
                            <circle cx="38.6" cy="56" r="1"></circle>
                            <circle cx="38.6" cy="59.4" r="1"></circle>
                            <circle cx="38.6" cy="62.8" r="1"></circle>
                            <circle cx="38.6" cy="66.2" r="1"></circle>
                            <circle cx="38.6" cy="69.7" r="1"></circle>
                            <circle cx="38.6" cy="73.1" r="1"></circle>
                            <circle cx="41.4" cy="21.8" r="1"></circle>
                            <circle cx="41.4" cy="25.2" r="1"></circle>
                            <circle cx="41.4" cy="28.6" r="1"></circle>
                            <circle cx="41.4" cy="32" r="1"></circle>
                            <circle cx="41.4" cy="35.4" r="1"></circle>
                            <circle cx="41.4" cy="38.9" r="1"></circle>
                            <circle cx="41.4" cy="42.3" r="1"></circle>
                            <circle cx="41.4" cy="45.7" r="1"></circle>
                            <circle cx="41.4" cy="49.1" r="1"></circle>
                            <circle cx="41.4" cy="52.6" r="1"></circle>
                            <circle cx="41.4" cy="56" r="1"></circle>
                            <circle cx="41.4" cy="59.4" r="1"></circle>
                            <circle cx="41.4" cy="62.8" r="1"></circle>
                            <circle cx="41.4" cy="66.2" r="1"></circle>
                            <circle cx="41.4" cy="69.7" r="1"></circle>
                            <circle cx="41.4" cy="73.1" r="1"></circle>
                            <circle cx="44.3" cy="21.8" r="1"></circle>
                            <circle cx="44.3" cy="25.2" r="1"></circle>
                            <circle cx="44.3" cy="28.6" r="1"></circle>
                            <circle cx="44.3" cy="32" r="1"></circle>
                            <circle cx="44.3" cy="35.4" r="1"></circle>
                            <circle cx="44.3" cy="38.9" r="1"></circle>
                            <circle cx="44.3" cy="42.3" r="1"></circle>
                            <circle cx="44.3" cy="45.7" r="1"></circle>
                            <circle cx="44.3" cy="49.1" r="1"></circle>
                            <circle cx="44.3" cy="52.6" r="1"></circle>
                            <circle cx="44.3" cy="56" r="1"></circle>
                            <circle cx="44.3" cy="59.4" r="1"></circle>
                            <circle cx="44.3" cy="62.8" r="1"></circle>
                            <circle cx="44.3" cy="66.2" r="1"></circle>
                            <circle cx="44.3" cy="69.7" r="1"></circle>
                            <circle cx="44.3" cy="73.1" r="1"></circle>
                            <circle cx="47.1" cy="21.8" r="1"></circle>
                            <circle cx="47.1" cy="25.2" r="1"></circle>
                            <circle cx="47.1" cy="28.6" r="1"></circle>
                            <circle cx="47.1" cy="32" r="1"></circle>
                            <circle cx="47.1" cy="35.4" r="1"></circle>
                            <circle cx="47.1" cy="38.9" r="1"></circle>
                            <circle cx="47.1" cy="42.3" r="1"></circle>
                            <circle cx="47.1" cy="45.7" r="1"></circle>
                            <circle cx="47.1" cy="49.1" r="1"></circle>
                            <circle cx="47.1" cy="52.6" r="1"></circle>
                            <circle cx="47.1" cy="56" r="1"></circle>
                            <circle cx="47.1" cy="59.4" r="1"></circle>
                            <circle cx="47.1" cy="62.8" r="1"></circle>
                            <circle cx="47.1" cy="66.2" r="1"></circle>
                            <circle cx="47.1" cy="69.7" r="1"></circle>
                            <circle cx="47.1" cy="73.1" r="1"></circle>
                            <circle cx="50" cy="21.8" r="1"></circle>
                            <circle cx="50" cy="25.2" r="1"></circle>
                            <circle cx="50" cy="28.6" r="1"></circle>
                            <circle cx="50" cy="32" r="1"></circle>
                            <circle cx="50" cy="35.4" r="1"></circle>
                            <circle cx="50" cy="38.9" r="1"></circle>
                            <circle cx="50" cy="42.3" r="1"></circle>
                            <circle cx="50" cy="45.7" r="1"></circle>
                            <circle cx="50" cy="49.1" r="1"></circle>
                            <circle cx="50" cy="52.6" r="1"></circle>
                            <circle cx="50" cy="56" r="1"></circle>
                            <circle cx="50" cy="59.4" r="1"></circle>
                            <circle cx="50" cy="62.8" r="1"></circle>
                            <circle cx="50" cy="66.2" r="1"></circle>
                            <circle cx="50" cy="69.7" r="1"></circle>
                            <circle cx="50" cy="73.1" r="1"></circle>
                            <circle cx="52.8" cy="21.8" r="1"></circle>
                            <circle cx="52.8" cy="25.2" r="1"></circle>
                            <circle cx="52.8" cy="28.6" r="1"></circle>
                            <circle cx="52.8" cy="32" r="1"></circle>
                            <circle cx="52.8" cy="35.4" r="1"></circle>
                            <circle cx="52.8" cy="38.9" r="1"></circle>
                            <circle cx="52.8" cy="42.3" r="1"></circle>
                            <circle cx="52.8" cy="45.7" r="1"></circle>
                            <circle cx="52.8" cy="49.1" r="1"></circle>
                            <circle cx="52.8" cy="52.6" r="1"></circle>
                            <circle cx="52.8" cy="56" r="1"></circle>
                            <circle cx="52.8" cy="59.4" r="1"></circle>
                            <circle cx="52.8" cy="62.8" r="1"></circle>
                            <circle cx="52.8" cy="66.2" r="1"></circle>
                            <circle cx="52.8" cy="69.7" r="1"></circle>
                            <circle cx="52.8" cy="73.1" r="1"></circle>
                            <circle cx="55.7" cy="21.8" r="1"></circle>
                            <circle cx="55.7" cy="25.2" r="1"></circle>
                            <circle cx="55.7" cy="28.6" r="1"></circle>
                            <circle cx="55.7" cy="32" r="1"></circle>
                            <circle cx="55.7" cy="35.4" r="1"></circle>
                            <circle cx="55.7" cy="38.9" r="1"></circle>
                            <circle cx="55.7" cy="42.3" r="1"></circle>
                            <circle cx="55.7" cy="45.7" r="1"></circle>
                            <circle cx="55.7" cy="49.1" r="1"></circle>
                            <circle cx="55.7" cy="52.6" r="1"></circle>
                            <circle cx="55.7" cy="56" r="1"></circle>
                            <circle cx="55.7" cy="59.4" r="1"></circle>
                            <circle cx="55.7" cy="62.8" r="1"></circle>
                            <circle cx="55.7" cy="66.2" r="1"></circle>
                            <circle cx="55.7" cy="69.7" r="1"></circle>
                            <circle cx="55.7" cy="73.1" r="1"></circle>
                            <circle cx="58.5" cy="21.8" r="1"></circle>
                            <circle cx="58.5" cy="25.2" r="1"></circle>
                            <circle cx="58.5" cy="28.6" r="1"></circle>
                            <circle cx="58.5" cy="32" r="1"></circle>
                            <circle cx="58.5" cy="35.4" r="1"></circle>
                            <circle cx="58.5" cy="38.9" r="1"></circle>
                            <circle cx="58.5" cy="42.3" r="1"></circle>
                            <circle cx="1.6" cy="1.2" r="1"></circle>
                            <circle cx="1.6" cy="4.7" r="1"></circle>
                            <circle cx="1.6" cy="8.1" r="1"></circle>
                            <circle cx="1.6" cy="11.5" r="1"></circle>
                            <circle cx="1.6" cy="14.9" r="1"></circle>
                            <circle cx="1.6" cy="18.3" r="1"></circle>
                            <circle cx="4.4" cy="1.2" r="1"></circle>
                            <circle cx="4.4" cy="4.7" r="1"></circle>
                            <circle cx="4.4" cy="8.1" r="1"></circle>
                            <circle cx="4.4" cy="11.5" r="1"></circle>
                            <circle cx="4.4" cy="14.9" r="1"></circle>
                            <circle cx="4.4" cy="18.3" r="1"></circle>
                            <circle cx="7.3" cy="1.2" r="1"></circle>
                            <circle cx="7.3" cy="4.7" r="1"></circle>
                            <circle cx="7.3" cy="8.1" r="1"></circle>
                            <circle cx="7.3" cy="11.5" r="1"></circle>
                            <circle cx="7.3" cy="14.9" r="1"></circle>
                            <circle cx="7.3" cy="18.3" r="1"></circle>
                            <circle cx="10.1" cy="1.2" r="1"></circle>
                            <circle cx="10.1" cy="4.7" r="1"></circle>
                            <circle cx="10.1" cy="8.1" r="1"></circle>
                            <circle cx="10.1" cy="11.5" r="1"></circle>
                            <circle cx="10.1" cy="14.9" r="1"></circle>
                            <circle cx="10.1" cy="18.3" r="1"></circle>
                            <circle cx="13" cy="1.2" r="1"></circle>
                            <circle cx="13" cy="4.7" r="1"></circle>
                            <circle cx="13" cy="8.1" r="1"></circle>
                            <circle cx="13" cy="11.5" r="1"></circle>
                            <circle cx="13" cy="14.9" r="1"></circle>
                            <circle cx="13" cy="18.3" r="1"></circle>
                            <circle cx="15.8" cy="1.2" r="1"></circle>
                            <circle cx="15.8" cy="4.7" r="1"></circle>
                            <circle cx="15.8" cy="8.1" r="1"></circle>
                            <circle cx="15.8" cy="11.5" r="1"></circle>
                            <circle cx="15.8" cy="14.9" r="1"></circle>
                            <circle cx="15.8" cy="18.3" r="1"></circle>
                            <circle cx="18.7" cy="1.2" r="1"></circle>
                            <circle cx="18.7" cy="4.7" r="1"></circle>
                            <circle cx="18.7" cy="8.1" r="1"></circle>
                            <circle cx="18.7" cy="11.5" r="1"></circle>
                            <circle cx="18.7" cy="14.9" r="1"></circle>
                            <circle cx="18.7" cy="18.3" r="1"></circle>
                            <circle cx="21.5" cy="1.2" r="1"></circle>
                            <circle cx="21.5" cy="4.7" r="1"></circle>
                            <circle cx="21.5" cy="8.1" r="1"></circle>
                            <circle cx="21.5" cy="11.5" r="1"></circle>
                            <circle cx="21.5" cy="14.9" r="1"></circle>
                            <circle cx="21.5" cy="18.3" r="1"></circle>
                            <circle cx="24.4" cy="1.2" r="1"></circle>
                            <circle cx="24.4" cy="4.7" r="1"></circle>
                            <circle cx="24.4" cy="8.1" r="1"></circle>
                            <circle cx="24.4" cy="11.5" r="1"></circle>
                            <circle cx="24.4" cy="14.9" r="1"></circle>
                            <circle cx="24.4" cy="18.3" r="1"></circle>
                            <circle cx="27.2" cy="1.2" r="1"></circle>
                            <circle cx="27.2" cy="4.7" r="1"></circle>
                            <circle cx="27.2" cy="8.1" r="1"></circle>
                            <circle cx="27.2" cy="11.5" r="1"></circle>
                            <circle cx="27.2" cy="14.9" r="1"></circle>
                            <circle cx="27.2" cy="18.3" r="1"></circle>
                            <circle cx="30" cy="1.2" r="1"></circle>
                            <circle cx="30" cy="4.7" r="1"></circle>
                            <circle cx="30" cy="8.1" r="1"></circle>
                            <circle cx="30" cy="11.5" r="1"></circle>
                            <circle cx="30" cy="14.9" r="1"></circle>
                            <circle cx="30" cy="18.3" r="1"></circle>
                            <circle cx="32.9" cy="1.2" r="1"></circle>
                            <circle cx="32.9" cy="4.7" r="1"></circle>
                            <circle cx="32.9" cy="8.1" r="1"></circle>
                            <circle cx="32.9" cy="11.5" r="1"></circle>
                            <circle cx="32.9" cy="14.9" r="1"></circle>
                            <circle cx="32.9" cy="18.3" r="1"></circle>
                            <circle cx="35.7" cy="1.2" r="1"></circle>
                            <circle cx="35.7" cy="4.7" r="1"></circle>
                            <circle cx="35.7" cy="8.1" r="1"></circle>
                            <circle cx="35.7" cy="11.5" r="1"></circle>
                            <circle cx="35.7" cy="14.9" r="1"></circle>
                            <circle cx="35.7" cy="18.3" r="1"></circle>
                            <circle cx="38.6" cy="1.2" r="1"></circle>
                            <circle cx="38.6" cy="4.7" r="1"></circle>
                            <circle cx="38.6" cy="8.1" r="1"></circle>
                            <circle cx="38.6" cy="11.5" r="1"></circle>
                            <circle cx="38.6" cy="14.9" r="1"></circle>
                            <circle cx="38.6" cy="18.3" r="1"></circle>
                            <circle cx="41.4" cy="1.2" r="1"></circle>
                            <circle cx="41.4" cy="4.7" r="1"></circle>
                            <circle cx="41.4" cy="8.1" r="1"></circle>
                            <circle cx="41.4" cy="11.5" r="1"></circle>
                            <circle cx="41.4" cy="14.9" r="1"></circle>
                            <circle cx="41.4" cy="18.3" r="1"></circle>
                            <circle cx="44.3" cy="1.2" r="1"></circle>
                            <circle cx="44.3" cy="4.7" r="1"></circle>
                            <circle cx="44.3" cy="8.1" r="1"></circle>
                            <circle cx="44.3" cy="11.5" r="1"></circle>
                            <circle cx="44.3" cy="14.9" r="1"></circle>
                            <circle cx="44.3" cy="18.3" r="1"></circle>
                            <circle cx="47.1" cy="1.2" r="1"></circle>
                            <circle cx="47.1" cy="4.7" r="1"></circle>
                            <circle cx="47.1" cy="8.1" r="1"></circle>
                            <circle cx="47.1" cy="11.5" r="1"></circle>
                            <circle cx="47.1" cy="14.9" r="1"></circle>
                            <circle cx="47.1" cy="18.3" r="1"></circle>
                            <circle cx="50" cy="1.2" r="1"></circle>
                            <circle cx="50" cy="4.7" r="1"></circle>
                            <circle cx="50" cy="8.1" r="1"></circle>
                            <circle cx="50" cy="11.5" r="1"></circle>
                            <circle cx="50" cy="14.9" r="1"></circle>
                            <circle cx="50" cy="18.3" r="1"></circle>
                            <circle cx="52.8" cy="1.2" r="1"></circle>
                            <circle cx="52.8" cy="4.7" r="1"></circle>
                            <circle cx="52.8" cy="8.1" r="1"></circle>
                            <circle cx="52.8" cy="11.5" r="1"></circle>
                            <circle cx="52.8" cy="14.9" r="1"></circle>
                            <circle cx="52.8" cy="18.3" r="1"></circle>
                            <circle cx="55.7" cy="1.2" r="1"></circle>
                            <circle cx="55.7" cy="4.7" r="1"></circle>
                            <circle cx="55.7" cy="8.1" r="1"></circle>
                            <circle cx="55.7" cy="11.5" r="1"></circle>
                            <circle cx="55.7" cy="14.9" r="1"></circle>
                            <circle cx="55.7" cy="18.3" r="1"></circle>
                            <circle cx="58.5" cy="1.2" r="1"></circle>
                            <circle cx="58.5" cy="4.7" r="1"></circle>
                            <circle cx="58.5" cy="8.1" r="1"></circle>
                            <circle cx="58.5" cy="11.5" r="1"></circle>
                            <circle cx="58.5" cy="14.9" r="1"></circle>
                            <circle cx="58.5" cy="18.3" r="1"></circle>
                            <circle cx="58.5" cy="45.7" r="1"></circle>
                            <circle cx="58.5" cy="49.1" r="1"></circle>
                            <circle cx="58.5" cy="52.6" r="1"></circle>
                            <circle cx="58.5" cy="56" r="1"></circle>
                            <circle cx="58.5" cy="59.4" r="1"></circle>
                            <circle cx="58.5" cy="62.8" r="1"></circle>
                            <circle cx="58.5" cy="66.2" r="1"></circle>
                            <circle cx="58.5" cy="69.7" r="1"></circle>
                            <circle cx="58.5" cy="73.1" r="1"></circle>
                            <circle cx="1.6" cy="76.5" r="1"></circle>
                            <circle cx="1.6" cy="79.9" r="1"></circle>
                            <circle cx="4.4" cy="76.5" r="1"></circle>
                            <circle cx="4.4" cy="79.9" r="1"></circle>
                            <circle cx="7.3" cy="76.5" r="1"></circle>
                            <circle cx="7.3" cy="79.9" r="1"></circle>
                            <circle cx="10.1" cy="76.5" r="1"></circle>
                            <circle cx="10.1" cy="79.9" r="1"></circle>
                            <circle cx="13" cy="76.5" r="1"></circle>
                            <circle cx="13" cy="79.9" r="1"></circle>
                            <circle cx="15.8" cy="76.5" r="1"></circle>
                            <circle cx="15.8" cy="79.9" r="1"></circle>
                            <circle cx="18.7" cy="76.5" r="1"></circle>
                            <circle cx="18.7" cy="79.9" r="1"></circle>
                            <circle cx="21.5" cy="76.5" r="1"></circle>
                            <circle cx="21.5" cy="79.9" r="1"></circle>
                            <circle cx="24.4" cy="76.5" r="1"></circle>
                            <circle cx="24.4" cy="79.9" r="1"></circle>
                            <circle cx="27.2" cy="76.5" r="1"></circle>
                            <circle cx="27.2" cy="79.9" r="1"></circle>
                            <circle cx="30" cy="76.5" r="1"></circle>
                            <circle cx="30" cy="79.9" r="1"></circle>
                            <circle cx="32.9" cy="76.5" r="1"></circle>
                            <circle cx="32.9" cy="79.9" r="1"></circle>
                            <circle cx="35.7" cy="76.5" r="1"></circle>
                            <circle cx="35.7" cy="79.9" r="1"></circle>
                            <circle cx="38.6" cy="76.5" r="1"></circle>
                            <circle cx="38.6" cy="79.9" r="1"></circle>
                            <circle cx="41.4" cy="76.5" r="1"></circle>
                            <circle cx="41.4" cy="79.9" r="1"></circle>
                            <circle cx="44.3" cy="76.5" r="1"></circle>
                            <circle cx="44.3" cy="79.9" r="1"></circle>
                            <circle cx="47.1" cy="76.5" r="1"></circle>
                            <circle cx="47.1" cy="79.9" r="1"></circle>
                            <circle cx="50" cy="76.5" r="1"></circle>
                            <circle cx="50" cy="79.9" r="1"></circle>
                            <circle cx="52.8" cy="76.5" r="1"></circle>
                            <circle cx="52.8" cy="79.9" r="1"></circle>
                            <circle cx="55.7" cy="76.5" r="1"></circle>
                            <circle cx="55.7" cy="79.9" r="1"></circle>
                            <circle cx="58.5" cy="76.5" r="1"></circle>
                            <circle cx="58.5" cy="79.9" r="1"></circle>
                        </g>
                    </g>
                </g>
            </g>
            <g id="obj_pump" transform="translate(239.000000, 145.000000)" fill="#00DF51" fill-rule="nonzero">
                <path d="M20.6,13.5 C20.6,11.7 19.1,10.2 17.3,10.2 C15.5,10.2 14,11.7 14,13.5 C14,15.3 15.5,16.8 17.3,16.8 C19.1,16.8 20.6,15.3 20.6,13.5 Z" id="Path"></path>
                <path d="M2,19 L2,16.7 L7.2,16.7 C6.9,15.7 6.7,14.6 6.7,13.5 C6.7,12.4 6.9,11.4 7.1,10.5 L2,10.5 L2,8.4 C2,8.2 1.8,8 1.6,8 L0.5,8 C0.3,8 0.1,8.2 0.1,8.4 L0.1,19 C0.1,19.2 0.3,19.4 0.5,19.4 L1.6,19.4 C1.8,19.3 2,19.2 2,19 Z" id="Path"></path>
                <path d="M8.3,19.1 C8.4,19.8 8.6,20.6 8.8,21.3 C8.9,21.8 9.1,22.1 9.8,22.3 C10.6,22.5 11.4,22.7 12.1,22.8 C10.5,21.9 9.2,20.6 8.3,19.1 Z" id="Path"></path>
                <path d="M22.5,22.8 C23.3,22.7 24,22.5 24.8,22.3 C25.4,22.1 25.6,21.9 25.8,21.3 C26,20.5 26.2,19.8 26.3,19 C25.4,20.6 24.1,21.9 22.5,22.8 Z" id="Path"></path>
                <path d="M32.1,8.4 L32.1,10.5 L27.4,10.5 C27.7,11.5 27.8,12.5 27.8,13.5 C27.8,14.6 27.6,15.7 27.3,16.7 L32.1,16.7 L32.1,19 C32.1,19.2 32.3,19.4 32.5,19.4 L33.6,19.4 C33.8,19.4 34,19.2 34,19 L34,8.5 C34,8.3 33.8,8.1 33.6,8.1 L32.5,8.1 C32.3,8 32.1,8.2 32.1,8.4 Z" id="Path"></path>
                <path d="M17.3,2.8 C21,2.8 24.3,4.8 26.2,7.7 C26.1,7.2 26,6.7 25.9,6.2 C25.9,5.7 25.5,5.4 25,5.2 L25,0.4 C25,0.2 24.8,0 24.6,0 L10,0 C10,0 9.8,0 9.7,0.1 C9.6,0.2 9.6,0.3 9.6,0.3 L9.6,5.1 C9.1,5.3 8.9,5.5 8.8,6 C8.7,6.5 8.6,7 8.5,7.5 C10.3,4.7 13.6,2.8 17.3,2.8 Z" id="Path"></path>
                <path d="M26.9,13.5 C26.9,8.1 22.6,3.8 17.3,3.8 C12,3.8 7.7,8.1 7.7,13.5 C7.7,18.9 12,23.2 17.3,23.2 C22.6,23.2 26.9,18.9 26.9,13.5 Z M10.1,13.5 C10.1,9.5 13.3,6.3 17.3,6.3 C21.3,6.3 24.5,9.5 24.5,13.5 C24.5,17.5 21.3,20.7 17.3,20.7 C13.3,20.7 10.1,17.5 10.1,13.5 Z" id="Shape"></path>
            </g>
            <g id="obj_flame" transform="translate(109.000000, 114.000000)" fill="#BBBBBB">
                <path d="M0.6,31.7 C1,36.6 4.3,43.5 12.9,41.7 C9.3,40.7 6.4,37.4 5.2,31.3 C6,31.5 7.1,32.2 7.5,32.4 C7.3,31.5 7.6,29 8.9,26 C10.4,33.7 11.5,35 13,35.3 C11.6,31.6 11.7,28.4 12.9,25.9 C13.5,28.3 14.7,30.1 15.8,31.3 C17.6,29.1 18.4,26.2 17.6,19.9 C21.6,25.2 21.3,28.5 20,30.5 C21.1,30.2 22.7,28.7 23.8,26.1 C24.8,27.3 24.6,29.5 23.7,32 C24.3,31.8 25.3,31.4 25.9,30.9 C24.9,38.2 20.7,39.1 16.7,41.3 C22.4,43.6 31.8,40.2 32.9,32.5 C33.2,31.2 32.8,29.3 32.5,27.8 C31.9,28.8 31.6,30.1 30.7,30.6 C30.5,29.2 30.9,28 31.5,26.8 C32.6,22.5 31.9,18.9 29.6,16.1 C29.2,18.2 28.7,20 27.7,20.5 C26.6,14 24.6,9.5 22.2,8.3 C22.4,10.2 22.3,11.8 21.6,13.2 C19.6,6 16.1,6.5 15.1,2.84217094e-14 C14.1,0.7 13.9,2.3 13.7,3.7 C13.7,6.6 13.9,9.4 12.7,10.8 C11.6,8.7 10.6,7 8.8,6.8 C10.1,9.5 9.6,14.2 7.7,19.3 C7,18 5.8,15.4 4.1,15 C4.5,18.4 4,22.3 3.2,25.9 C2.7,25.1 1.7,24.2 0.6,23.6 C1.8,26.8 0.1,28.2 0.6,31.7 Z M16.2,9.8 C16.4,12.5 16.2,15.3 15.4,16.7 C15.3,14.1 15,12.6 16.2,9.8 Z" id="Shape"></path>
            </g>
        </g>
    </g>
</svg>