<?xml version="1.0" encoding="utf-8"?>
<!-- Generator: Adobe Illustrator 25.4.1, SVG Export Plug-In . SVG Version: 6.00 Build 0)  -->
<svg version="1.1" id="BasicGraphic_x5F_RadiatorHeating"
	 xmlns="http://www.w3.org/2000/svg" xmlns:xlink="http://www.w3.org/1999/xlink" x="0px" y="0px" viewBox="0 0 380 230"
	 style="enable-background:new 0 0 380 230;" xml:space="preserve">

<style type="text/css">

	.pumpcolor{fill:#87AD27;} <!-- #87AD27 = Pumpe aktiv / #BBBBBB = Pumpe inaktiv  -->
	.heatsymbolcolor{fill:#FF3232;} <!-- #FF3232 = Heizen aktiv / #BBBBBB = Heizen inaktiv  -->

	.st0{fill:none;stroke:#C8C8C8;stroke-width:10;stroke-miterlimit:10;}
	.st1{fill:#323232;}
	.st2{fill:#6E8CA0;}
	.st3{fill:#C86464;}
	.st4{fill:#646464;}
	.st5{fill-rule:evenodd;clip-rule:evenodd;fill:url(#SVGID_1_);}
	.st6{fill-rule:evenodd;clip-rule:evenodd;fill:url(#SVGID_00000115484201586159516250000017554034891595649699_);}
	.st7{fill-rule:evenodd;clip-rule:evenodd;fill:url(#SVGID_00000071545069664475952510000014575635778200129448_);}
	.st8{fill-rule:evenodd;clip-rule:evenodd;fill:url(#SVGID_00000046297757180964183360000017227654875790982314_);}
	.st9{fill-rule:evenodd;clip-rule:evenodd;fill:url(#SVGID_00000146490622058468512850000017500578048586534828_);}
</style>

<g id="obj_pump-01" class="pumpcolor">
	<path d="M151.1,136.5c0-1.9,1.5-3.4,3.4-3.4s3.4,1.5,3.4,3.4c0,1.9-1.5,3.4-3.4,3.4S151.1,138.4,151.1,136.5z"/>
	<path d="M170.2,142.1v-2.3h-5.3c0.3-1,0.5-2.1,0.5-3.2c0-1.1-0.2-2.1-0.4-3.1h5.3v-2.1c0-0.2,0.2-0.4,0.4-0.4h1.1
		c0.2,0,0.4,0.2,0.4,0.4v10.8c0,0.2-0.2,0.4-0.4,0.4h-1.1C170.4,142.5,170.2,142.3,170.2,142.1z"/>
	<path d="M163.8,142.2c-0.1,0.8-0.3,1.5-0.5,2.3c-0.1,0.5-0.3,0.8-1,1c-0.8,0.2-1.6,0.4-2.4,0.5
		C161.5,145.1,162.8,143.8,163.8,142.2z"/>
	<path d="M149.1,146c-0.8-0.1-1.6-0.3-2.4-0.5c-0.6-0.2-0.8-0.4-1-1c-0.2-0.8-0.4-1.5-0.5-2.3
		C146.2,143.8,147.5,145.1,149.1,146z"/>
	<path d="M139.3,131.3v2.1h4.8c-0.3,1-0.4,2-0.4,3.1c0,1.1,0.2,2.2,0.5,3.2h-4.9v2.3c0,0.2-0.2,0.4-0.4,0.4h-1.1
		c-0.2,0-0.4-0.2-0.4-0.4v-10.8c0-0.2,0.2-0.4,0.4-0.4h1.1C139.1,130.9,139.3,131,139.3,131.3z"/>
	<path d="M154.5,125.5c-3.8,0-7.2,2-9.1,5c0.1-0.5,0.2-1,0.4-1.6c0-0.5,0.4-0.8,1-1v-4.9c0-0.2,0.2-0.4,0.4-0.4l14.9,0
		c0,0,0.2,0,0.3,0.1c0.1,0.1,0.1,0.2,0.1,0.2l0,5c0.5,0.2,0.7,0.5,0.8,1c0.1,0.5,0.2,1,0.3,1.5C161.7,127.5,158.3,125.5,154.5,125.5
		z"/>
	<path d="M154.5,146.5c5.4,0,9.8-4.5,9.8-10c0-5.5-4.4-10-9.8-10c-5.4,0-9.8,4.5-9.8,10
		C144.7,142,149.1,146.5,154.5,146.5z M154.5,143.9c-4.1,0-7.4-3.3-7.4-7.4c0-4.1,3.3-7.4,7.4-7.4c4.1,0,7.4,3.3,7.4,7.4
		C161.9,140.6,158.6,143.9,154.5,143.9z"/>
</g>

<g id="obj_heating" class="heatsymbolcolor">
	<path d="M298.6,158.2c0.2,0.3,0.5,0.6,0.6,0.7c0.7,1,1.2,1.9,0.8,3c-0.3,1.1-1.3,2.4-1.7,2.9c-0.6,0.7-0.5,1.8,0.2,2.4
		c0.3,0.3,0.7,0.4,1.1,0.4c0.5,0,1-0.2,1.3-0.6c0.2-0.2,1.7-2.1,2.3-4c0.8-2.6-0.5-4.7-1.2-5.8c-0.2-0.4-0.6-0.7-0.9-1.2
		c-0.9-1-1.9-2.1-2.3-3.8c-0.4-1.8,1.4-3.3,1.5-3.3c0.7-0.6,0.8-1.6,0.2-2.4c-0.6-0.7-1.6-0.8-2.4-0.3c-0.1,0.1-3.4,2.8-2.6,6.6
		C296,155.4,297.6,157.1,298.6,158.2z"/>
	<path d="M306.6,158.2c0.2,0.3,0.5,0.6,0.6,0.7c0.7,1,1.2,1.9,0.8,3c-0.3,1.1-1.3,2.4-1.7,2.9c-0.6,0.7-0.5,1.8,0.2,2.4
		c0.3,0.3,0.7,0.4,1.1,0.4c0.5,0,1-0.2,1.3-0.6c0.2-0.2,1.7-2.1,2.3-4c0.8-2.6-0.5-4.7-1.2-5.8c-0.2-0.4-0.6-0.7-0.9-1.2
		c-0.9-1-1.9-2.1-2.3-3.8c-0.4-1.8,1.4-3.3,1.5-3.3c0.7-0.6,0.8-1.6,0.2-2.4c-0.6-0.7-1.6-0.8-2.4-0.3c-0.1,0.1-3.4,2.8-2.6,6.6
		C304.1,155.4,305.6,157.1,306.6,158.2z"/>
	<path d="M314.7,158.2c0.2,0.3,0.5,0.6,0.6,0.7c0.7,1,1.2,1.9,0.8,3c-0.3,1.1-1.3,2.4-1.7,2.9c-0.6,0.7-0.5,1.8,0.2,2.4
		c0.3,0.3,0.7,0.4,1.1,0.4c0.5,0,1-0.2,1.3-0.6c0.2-0.2,1.7-2.1,2.3-4c0.8-2.6-0.5-4.7-1.2-5.8c-0.2-0.4-0.6-0.7-0.9-1.2
		c-0.9-1-1.9-2.1-2.3-3.8c-0.4-1.8,1.4-3.3,1.5-3.3c0.7-0.6,0.8-1.6,0.2-2.4c-0.6-0.7-1.6-0.8-2.4-0.3c-0.1,0.1-3.4,2.8-2.6,6.6
		C312.1,155.4,313.7,157.1,314.7,158.2z"/>
	<path d="M324,168.8h-31.8c-0.9,0-1.7,0.8-1.7,1.7c0,0.9,0.8,1.7,1.7,1.7H324c0.9,0,1.7-0.8,1.7-1.7
		C325.6,169.5,324.9,168.8,324,168.8z"/>
</g>

<g id="base">
	<polyline id="room_00000082362088509689826120000002344522352302292380_" class="st0" points="179.9,98.6 276.6,12.5 372.3,98.6 
		372.3,223.9 "/>
	<path id="flow-temp-sensor_00000146463435298327292350000016746211540010067348_" class="st1" d="M219.1,181.5c0-0.7-0.5-1.2-1-1.2
		h-13c-0.5,0-1,0.6-1,1.2v3.8h15V181.5z"/>
	<path id="return-line_00000140713228183476476000000012367850747020319893_" class="st2" d="M273.2,212.3H4.6v6.4h268.6V212.3z
		 M53.5,217.7l-4.8-2.2l4.8-2.2V217.7z M186.8,217.7l-4.8-2.2l4.8-2.2V217.7z"/>
	<path id="return-line_00000163072441756659302930000002646879665624504209_" class="st2" d="M110.8,213.3v-64h-6.4v64L110.8,213.3z
		 M105.4,183.3l2.2-4.8l2.2,4.8H105.4z"/>
	<path class="st3" d="M186.7,191.7h86.5v-6.4H193v-51.9h0h-18.2v-2.1c0-0.2-0.2-0.4-0.4-0.4h-1.1c-0.2,0-0.4,0.2-0.4,0.4v10.8
		c0,0.2,0.2,0.4,0.4,0.4h1.1c0.2,0,0.4-0.2,0.4-0.4v-2.3h11.8V191.7z M230.5,186.2l5.2,2.2l-5.2,2.2V186.2z"/>
	<path id="supply-line-01_00000020398290065697149370000015866372461089385608_" class="st3" d="M136.3,130.9h-1.1
		c-0.2,0-0.4,0.2-0.4,0.4v2.3h-13.3l0,6.4h13.3v2.1c0,0.2,0.2,0.4,0.4,0.4h1.1c0.2,0,0.4-0.2,0.4-0.4v-10.8
		C136.7,131,136.5,130.9,136.3,130.9z"/>
	<path id="supply-line-01_00000103232614497367165590000003625061722047317405_" class="st3" d="M93.8,133.6H4.6l0,6.4h89.2V133.6z
		 M48.3,138.7v-4.4l4.8,2.2L48.3,138.7z"/>
	<path id="obj_x5F_mixer_00000017490108773606385800000012335256658014083237_" class="st4" d="M111.2,138l3.9,2.2l6.4,3.7l0-7.4
		v-7.4l-6.4,3.7l-3.9,2.2c-0.6-1.4-2-2.4-3.6-2.4c-1.6,0-3,1-3.6,2.4l-3.9-2.2l-6.4-3.7v7.4v7.4l6.4-3.7l3.9-2.2
		c0.3,0.8,0.9,1.4,1.6,1.8l-1.8,3.1l-3.7,6.4h7.4h7.4l-3.7-6.4l-1.8-3.1C110.3,139.4,110.8,138.8,111.2,138z"/>
	<g id="obj_x5F_radiator">
		<path id="return-line_2_" class="st4" d="M281.3,185.3h-8.1v6.4h8.2L281.3,185.3z"/>
		<path id="return-line_3_" class="st4" d="M281.3,212.3h-8.1v6.4h8.2L281.3,212.3z"/>
		<linearGradient id="SVGID_1_" gradientUnits="userSpaceOnUse" x1="287.3571" y1="223.9965" x2="287.3571" y2="180.4903">
			<stop  offset="0" style="stop-color:#6E8CA0"/>
			<stop  offset="0.15" style="stop-color:#75899C"/>
			<stop  offset="0.8" style="stop-color:#BF686A"/>
			<stop  offset="1" style="stop-color:#C86464"/>
		</linearGradient>
		<path class="st5" d="M287.4,224L287.4,224c-2.2,0-4-1.8-4-4v-35.5c0-2.2,1.8-4,4-4h0c2.2,0,4,1.8,4,4V220
			C291.4,222.2,289.6,224,287.4,224z"/>
		
			<linearGradient id="SVGID_00000111871815355041237930000000333631915045955206_" gradientUnits="userSpaceOnUse" x1="297.4041" y1="223.9965" x2="297.4041" y2="180.4903">
			<stop  offset="0" style="stop-color:#6E8CA0"/>
			<stop  offset="0.15" style="stop-color:#75899C"/>
			<stop  offset="0.8" style="stop-color:#BF686A"/>
			<stop  offset="1" style="stop-color:#C86464"/>
		</linearGradient>
		<path style="fill-rule:evenodd;clip-rule:evenodd;fill:url(#SVGID_00000111871815355041237930000000333631915045955206_);" d="
			M297.4,224L297.4,224c-2.2,0-4-1.8-4-4v-35.5c0-2.2,1.8-4,4-4l0,0c2.2,0,4,1.8,4,4V220C301.4,222.2,299.6,224,297.4,224z"/>
		
			<linearGradient id="SVGID_00000032619549108395790700000002792483896890080900_" gradientUnits="userSpaceOnUse" x1="307.4466" y1="223.9965" x2="307.4466" y2="180.4903">
			<stop  offset="0" style="stop-color:#6E8CA0"/>
			<stop  offset="0.15" style="stop-color:#75899C"/>
			<stop  offset="0.8" style="stop-color:#BF686A"/>
			<stop  offset="1" style="stop-color:#C86464"/>
		</linearGradient>
		<path style="fill-rule:evenodd;clip-rule:evenodd;fill:url(#SVGID_00000032619549108395790700000002792483896890080900_);" d="
			M307.4,224L307.4,224c-2.2,0-4-1.8-4-4v-35.5c0-2.2,1.8-4,4-4h0c2.2,0,4,1.8,4,4V220C311.5,222.2,309.7,224,307.4,224z"/>
		
			<linearGradient id="SVGID_00000116234201278477487790000006430972759435180957_" gradientUnits="userSpaceOnUse" x1="317.5347" y1="223.9965" x2="317.5347" y2="180.4903">
			<stop  offset="0" style="stop-color:#6E8CA0"/>
			<stop  offset="0.15" style="stop-color:#75899C"/>
			<stop  offset="0.8" style="stop-color:#BF686A"/>
			<stop  offset="1" style="stop-color:#C86464"/>
		</linearGradient>
		<path style="fill-rule:evenodd;clip-rule:evenodd;fill:url(#SVGID_00000116234201278477487790000006430972759435180957_);" d="
			M317.5,224L317.5,224c-2.2,0-4-1.8-4-4v-35.5c0-2.2,1.8-4,4-4l0,0c2.2,0,4,1.8,4,4V220C321.6,222.2,319.7,224,317.5,224z"/>
		
			<linearGradient id="SVGID_00000023244700553796966600000003019960012708771210_" gradientUnits="userSpaceOnUse" x1="327.6289" y1="223.9965" x2="327.6289" y2="180.4903">
			<stop  offset="0" style="stop-color:#6E8CA0"/>
			<stop  offset="0.15" style="stop-color:#75899C"/>
			<stop  offset="0.8" style="stop-color:#BF686A"/>
			<stop  offset="1" style="stop-color:#C86464"/>
		</linearGradient>
		<path style="fill-rule:evenodd;clip-rule:evenodd;fill:url(#SVGID_00000023244700553796966600000003019960012708771210_);" d="
			M327.6,224L327.6,224c-2.2,0-4-1.8-4-4v-35.5c0-2.2,1.8-4,4-4h0c2.2,0,4,1.8,4,4V220C331.7,222.2,329.8,224,327.6,224z"/>
	</g>
</g>

</svg>
